<svg xmlns="http://www.w3.org/2000/svg" width="132.9" height="100" viewBox="0 0 35.2 26.5"><path fill="#fff" d="M19.2 25.8H19.6l.4-.1h.2l.5-.1-.1.1-.2.2h.1l.5-.2v.1l.7-.2H23.4l.2.1h2.1v-.2h.3l.2.1h1c0 .2.2.1.3 0H28.5s0-.1 0 0c.1 0 .2-.1.2 0v.1h.2l.4-.1h.5c0-.1.2-.1.2 0h.4v.1H30.7l.3-.2h.8s0 .1.1 0h.1l.1.1h.8c.1 0 .3-.1.4 0 0-.1.1 0 .2 0h.1c0-.1.1 0 .2 0v-.1H34.8v-.1-.1h-.5-.2c0-.1.1 0 .2 0H34.7c0-.1 0 0 .1 0l.2-.2h.1v.1l.2.1v.2H35l-.1.1h-.2l-.2.1h-.4-.2-.7-.1s-.2.1-.2 0l-.4.1H32s-.2.1-.2 0l-.3.1H31.2 31c-.2 0-.3.1-.4 0 0 .1 0 .1 0 0l-.2.1h-.2l-.6.1h-1.1l-.2.1H28h-.3-.2-1.1H25.8l-.1.1h-1.2v.1H24 24h-.2-.1-.2-.2-.1H22h-.9-.2-.1-.1-.1-.1-.6-.2l-.1-.1H19h-.5c-.2-.1-.3 0-.4 0l-.1-.1h-.3-.1-.4-.1-.2l-.3.1h-.4H15h-.2-.7H13h-.3-.2-.1H11.8h-.1H10.3h-.1-.4-.2l-.6-.1h-.3-.2l-.4-.1h-.2-.1s-.1-.1-.2 0l-.1-.1H7h-.4l-.3-.1h-.4l-.3-.1-.4-.2h-.4-.6H4c0-.1 0 0 0 0l-.3-.1h-.2-.6-.2-.2-.2H2 2h-.2l-.1-.1h-.2H1 .9.8.6.4.3c-.1 0-.1-.1-.1 0l-.1-.2c-.1 0-.1-.2 0-.2h.2l.4.2H5.8l.3.1H7.7v.1h.7v.1H9v-.1h.2l.4.1H10.9l.6.2-.1-.2H12l.1.1h.5l-.3-.2.4.1H13.8v.1h.5s.2-.1.2 0H15.1l.2-.1h1l.2.1h.4l.2.1h.2l.3.2H18.5l.5-.1h.2"/><path fill="#fff" d="M35 25v.1h-.4-.2l-.3-.1h-.2-.2-.3-.5-.1l-.5-.1h-.1-.3-.2-.2l-.2-.1c-.2 0-.4 0-.5-.2h-.3v-.1l-.1-.1-.2-.1-.1-.2-.2-.3v-.2l-.2-.2s0-.1 0 0v-.5-.2-.1s-.1-.1 0-.2l-.1-.2V22v-.1-.2-.2-.3-.2-.3l-.1-.2v-.1-.2l-.2-.1V20.7l.1.6v1h.1v.8c0 .1.2.3.1.5h-.1v-.3-.2-.1c-.1 0-.1 0 0-.1l-.1-.1v-.3-.2-.2c-.1 0 0-.1 0-.1v-.3l-.1-.3V21v-.2c-.1 0 0 0 0 0l-.1-.3-.1-.3v-.1L29 20v-.1l-.1-.2-.2-.4-.2.1-.1.1-.2.1-.2.1V22s.1 0 0 .1v-.4l-.1-.3V21 21l-.2-.5v-.3-.1c-.1-.1 0-.3 0-.4v-.1l.2-.2v-.1l.1-.2h-.2v-.3l-.2-.2h-.2-.1l.2.5-.2-.1-.1-.1v.2l.2.2v.3h-.2l-.1-.2v-.2L27 19l-.2-.2v-.1l-.1-.3v-.2c0-.2-.2-.3-.1-.4v-.3s-.1-.1 0-.2V17l.1.1.1-.4c0-.2.1-.3 0-.4l.2-.3.2-.1c0-.2.1-.2.2-.3l.2-.2c0-.1 0 0 0 0-.2 0-.4 0-.4.2l-.2.1v.1l-.3.3v.1l-.2.3h-.1v-.1-.1l.2-.3.2-.3.2-.4.3-.3v-.3c0-.2.2-.3.1-.5l.1-.2v-.1h-.2l-.2.2s-.1 0 0-.1h-.2v-.2-.1-.2-.3h.1V13l.1-.2v-.1H27h-.1-.1v-.3c-.1 0-.2 0-.1-.1l-.1-.1V12h1.2c.2 0 .3-.1.3-.3v-.3l.1-.4h.1v.4l.2.3v.1l.1.2v.2l.2.4v.2l.1.3.2.6.1.3.1.3c0 .3.2.6.3.8l.3.5v.5l.1.2V22l.1 1.2.2.4.2.3s.2 0 .2.2h.2l.6.3H33l.2.1h.6c.2 0 .3.1.4 0 0 0 0 .1 0 0l.2.1h.2s.2.1.2 0l.1.1.2.2"/><path fill="#fff" d="M34 25.2v.1h-.2-.2-1.2-.8-.4-.1l-.2-.1h-.5-.1L30 25h-.2-.1c0-.1-.2 0-.2 0-.1-.1-.3 0-.4-.2h-.8-.3l.2-.1v-.1h.1v-.3c0-.1-.1-.2 0-.2l.1.2.4.1h.7v-.1l-.1-.1.2.1h.1v.1l.1.1c.2 0 .2.1.3.2h.3c0 .2.2.1.3.2h.2l.3.2H34"/><path fill="#fff" d="M29.5 24.2h-.1l-.2-.1h-.3-.7V24v-.2-.1-.1l-.1-.4V23v-.4L28 22h.1v.7l.1.3v.5l.1.1.5.1h.3v-.1h.2v.3l.2.2"/><path fill="#fff" d="M29.2 23.5v.2l-.1-.3v-.2s-.1 0 0-.1L29 23v-.1-.4l-.1-.4v-.3-.2-.2-.2c0-.2-.2-.3-.1-.5v-.2-.1l-.1-.4c0-.1 0-.3-.2-.5.2 0 .2.2.3.3v.4l.1.1v.5l.1.2v1.3l.1.1v.5l.1.4v.2M28.7 4.6V5c-.2.3-.2.6-.2.9v.7l-.2.8-.1.7v.5c.1 0 .2.3.1.4l.1.3V11.1h-.2v-.2l-.2.2v.4l-.4.1h-.2a4 4 0 0 1-.5 0h-.2-.1v.1h-.1-.2c.1 0 .1-.1.2 0h.1l.2-.1h.1l.3-.1h.1l.1-.2v-.1l.1-.3v-.3l-.2-.3v-.1-.1-.2H27v-.3-.2-.2l.1-.3v-.1-.2c0-.2.2-.3.2-.3l-.2-.1c0-.2.1-.2.2-.3v-.2c0 .1-.2.2-.3.1 0-.2.3-.2.3-.5l.1-.4-.1-.1c-.1 0-.2 0-.2.2l-.2.2v.4h-.2v-.5h.2s.1 0 0-.2v-.1-.3h.1l.3-.2h.2s.2 0 .2-.2h-.2l.1-.2V6h.2l-.2-.1v-.1l-.2.1-.2.1.1.1-.2.2H27h-.2v.1h-.1v-.1l.1-.2-.2.1-.2.2H26c.1 0 .3 0 .3-.2l.1-.2v-.1-.1l.2-.2.3-.1V5h-.1v-.5-.1-.2-.1V4h.1c0-.1 0-.2.2-.2V4h.1v.1l.1.3.1.2.1.2.2.1h.2v-.2l.4-.6.3-.1V4.7m-.2.4l.2-.4v-.2c-.1 0 0 0 0-.1h-.2-.1l-.2.3v.2l-.2.2-.1.1.3.1V5l.2-.2c0 .1 0 0 0 0l.1.2v0m0 .5c-.1 0-.2 0-.2.2l.1.2v-.1l.1-.3m-.7.2h.1M27.3 5.1v-.2l-.1-.3-.1-.1v-.2-.1L27 4V4l.1.3v.1l.1.3V5l.1.1h.1m-.3.3h.1c0-.2 0-.3-.2-.3V5.2zm-.4.5v-.1l-.1.2M28.1 24.2v.2s-.1 0 0 0l-.1-.1V24 24v-.3s-.1 0 0-.1l-.1-.2V23v-.2h-.1v-.3l-.1-.5v-.4-.1-.2l-.1-.1-.1-.4-.2-.3-.1-.2v-.2-.1-.2l-.1-.3.1.2.1-.1c.2 0 .2.2.3.3v.7l.1.3v.2l.1.6V22.1l.1.3V23.2l.1.5v.1l.1.2v.2"/><path fill="#fff" d="M28 24.9H28l-.4.1h-.9-.1-.2-.7-.2a1 1 0 0 1-.3 0h-.3.2s.1-.1.2 0l.2-.2h2v-.1l.3-.1v-.2-.3-.2-.5-.2-.3-.2s-.1-.2 0-.2V23.4l.1.1v.7c0 .1.2.3 0 .4v.1h-.1v.1h.3"/><path fill="#fff" d="M27.2 23.9v.2l-.2.2h-.3-.2c0-.1.2 0 .2 0v-.1h.4V24H27h-.2v-.2h-.2v-.2-.2l.1-.2v-.3-.5-.3-.3-.2l-.1-.3v-.2-.3-.2l-.1-.4V20v-.2-.3l.1.5v-.3h.2v.7l.1.2v.2c0 .1.1.3 0 .4l.1.3V22.1s.1.2 0 .2l.1.1V23.7l.1.3M27.2 10v1H27l-.2.2h-.1l-.1.1-.3.1h-.1-.2l-.3.1H25.4h-.3-.2.4v-.1-.1h.7l.2-.1.1-.1V11l.1-.3v-.1-.1l.1.1H27v-.2-.3l.1-.1zM26.7 7.6h.1v.5h-.1v.1l-.3.4-.2.2-.1.2-.3.3.1-.4.3-.4.4-.4v-.2l.1-.3"/><path fill="#fff" d="M26.7 19.4V19.7l-.1-.2-.1-.3V19l-.1-.2-.1-.4v-.1-.2l-.1-.2v-.2-.2-.1-.2-.5h.1l.1-.2h.1V16.9l-.1.2v1.4l.1.2v.2l.1.3v.2s.1 0 0 0v.1M26.7 23.8v.1h-.3-.1-.3-.1l-.5.1H25v-.1h.2s0-.2.2-.2h1l.2-.1v.2h.1M26.6 7v.2H26.3V7H26l-.1-.1-.1-.4h.2v-.2h.2l-.1.1.1.1H26.5v.1l-.2.2c0-.1-.2-.2-.2 0h.3l.2.2M20.3 10h-.5v-.1h-.1-.5-.2-.1-.5-.1-1.4-.1-.5-.1-.1-.2-.2-.1-.1-.4-2v-.1h-.4-.1a2 2 0 0 0-.5 0v1c-.1 0 0 0 0 0l-.1.1v.3l.3.3V12.4H12v.5l-.1.2v1s-.1.1 0 .2v.1 2.4c.1.2 0 .3.2.4v.4l.1.2.1.3v.2l.1.2v.1l.2.2v.1h.2l.3-.3h.3l.1-.1h.5v-.1l.1-.2V18l.2-.5v-.1l.1-.2.1-.3v-.1l.2-.4.1-.2V16l.2-.3.3-.8.4-1.3.2-.4V13l.1-.2v-.1-.2l.1-.2v-.1c0-.2-.1-.2-.2-.2h-.4-.3-.1-.4l-.2.1V12l.3-.1v-.2h.2v-.1l.2-.1.1-.2.2-.1.2-.2H16.3l.1.2.1.1v.1l.1.2v1.5l-.1.3v.2l-.2.2v.2l-.1.2v.3l-.1.1v.3H16c-.1.2 0 .5-.2.6V15.8l-.1.4-.1.3v.2h-.1v.4l-.1.2v.8h.4l.3-.1.5-.5h.1l.1-.2h.2v.1h.1l-.4.5h.3v-.2h.1v-.1c.1 0 .3 0 .3-.2h.1l.1-.1v-.1l.2-.1s.2.1.2 0v-.2h.4v-.2s.1-.1.2 0l.2.1v-.2h.5v-.2h.1l.1-.1s.1 0 0 0v.1l.1.2h.1v-.3-.2h-.1v-.2-.2h.2v.1l.3-.1.1.2.1.3v.1h.2v-.1c.2 0 .1 0 .2.2V16.7h.1l.2.1.2-.1.2.2h.2l.2.3h.2c0-.1 0 0 0 0h.5v.6l-.2.2c-.2 0-.1.1-.1.2v.2l-.2.2.4.1.2.1.4.2.1-.2v-.2l.1-.2v-.1-.1l.1-.2v-.1-.2-.2l.1-.3V17s.1-.2 0-.2c.1-.1.2-.3.1-.5v-.2c0-.1.1-.1 0-.2l.1-.2v-.3-.4-.2l.1-.1v-.2-.3-.2-.3-.3-.4-.3h-.2v-.2-.4l-.2-.2v-.1l.1-.1v-.3H23.8v-.2-.6-.3c-.2 0-.2-.1-.2-.2h-.1V10h-.1-.3l-.2-.1h-.1v.2l-.2-.1h-1.2-.1H20.8h-.3-.1-.2M7.7 5v-.2-.3l-.2-.2V4h-.1l-.2-.2-.1.6.1.2v-.1l.1-.2h.1v.3l.2.2.1.1m0 6.7H11.3l.1.1h.3l.1.1.2.1-.1-.1v-.2-.1h.2c0-.1-.2-.2-.3-.1h-.2s-.1 0 0 0v-.1h-.2l.2-.1v-.1s-.1-.1-.2 0l-.3.1H11 10.3 10l-.1-.1h-.3L9 11H9h-.1-.2l-.1-.1v-.3-.3c.1 0 0 .1 0 .2l.2.2.2.2H9.3v-.2-.2-.1h.1l.2.4h.1l.1.2.2.1.1-.7V10v-.2-.3L9.8 9V9v-.1l.1-.1v-.3h.1l.2-.1.2-.2.3-.2h.1l.2-.1.3-.2h.2l.2-.1.2-.1h.2v-.1h.2l.4-.2.4-.1h.2v.1c.1.1 0 .1 0 .2l-.1.1-.6.4h-.1c-.1 0-.2 0-.2.2L12 8H12l-.2.2-.2.2-.3.1-.1.2-.1.1H11V9l-.1.1v.4l.1.3s0 .2.2.3h.1V10H11.7l.2-.2v-.2l.1-.1c.1 0 .2 0 .1-.2l.3-.1V9h.6l.2.1c0 .1.1.1.1 0l.1.1v.2H16s0 .1 0 0H16.9c0 .1 0 0 0 0h.7l.3.1h1.4a19.1 19.1 0 0 0 1.8 0H22.4c0-.2 0-.3.2-.3h.6l.4.1.1.2h.1v.1h.1l.1.3h.2l.1.1h.1l.2-.3v-.2s.1 0 0 0l.1-.3-.1-.3h-.1v-.1s-.1 0 0 0l-.4-.2s0-.2-.2-.2l-.2-.2h-.1v-.1h-.2l-.1-.1L23 8l-.2-.1-.2-.1h-.1c-.1-.2-.2-.1-.3-.2l-.2-.2c0-.2.2-.3.3-.3l.5.1h.2l.4.2h.1l.1.1h.1l.1.1h.1l.1.1h.2v.1h.1l.3.2h.1l.2.1.2.2.1.1h.1v.2h.1V9h.1v.2a2.8 2.8 0 0 1 0 .3v.2l-.1.3v.1a16.3 16.3 0 0 1 0 .7v.5L25 11h-.2l-.1.1v.2l.2.2s0 .1-.1 0h-.2l-.2-.1h-.1l.2.2h-.3-.1v.1h.4v.1l-.3.1v.2h.4s.1-.1.2 0l.4-.1h1.3v.2h-.1-.1-.2-.1-.2-.1v.6l-.1.1v-.1-.2l-.1-.3-.1-.1h-.2-.1-.5l-.3.1-.2.1h-.1v1.1l-.1.5-.1 1.3v1l-.1.2v.2l-.1.4v.5h-.1l-.1.5V18.5l-.1.1V18.8l-.1.2-.1.3-.1.2-.2.4v.2l-.1.1v.1c-.1 0 0 .2-.2.2l-.1.3-.2.4s-.1 0 0 .1c-.2 0-.2.1-.3.2v.2l-.2.1-.1.1v.1l-.1.1-.2.2-.1.2H21c0 .2-.1.2-.2.3l-.2.2-.1.1c-.2.2-.3.4-.6.5 0 .2-.2.3-.3.4-.2.1-.3.3-.5.3l-.1.2-.3.2c-.1 0-.2 0-.3.2l-.3.1-.3.2h-.2-.2V25l-.3-.1-.3-.3h-.2c0-.2-.2-.3-.3-.4l-.2-.2-.2-.1-.2-.2h-.1v-.1l-.3-.3-.2-.1-.2-.2-.1-.2-.3-.3-.2-.2-.2-.3-.1-.1-.1-.2h-.1l-.1-.3-.2-.2-.2-.3-.5-.8-.1-.3-.1-.2-.1-.2-.1-.2-.1-.3-.1-.2-.2-.5-.1-.4-.1-.2v-.3l-.2-.6v-.3-.2-.1-.4s-.1-.1 0-.2v-.3l-.1-.1V15 15v-.3-.1-.3-.3-.2-.3-.3c0-.2.1-.3 0-.4 0 0 .1-.1 0-.2h.1v-.3h-.1-.1l-.2-.2-.2-.1h-1v.7l-.1.6v.3h-.1v.7l-.1.1v.5l.1.1h-.1-.1v.1l-.2.2v-.4-.2l.2-.6v-.2-.2-.2-.2l.1-.5.1-.6v-.3h-.1-.2l-.1.5v.2h-.1v.5l-.1.2-.1.2-.1.1h-.2v.4l-.1-.2c-.2.1-.2.2-.2.4v.1l.2.2v.5H8.4l-.3-.1-.1-.1-.3-.1h-.2l.1.2h.5l.3.2.4.5.2.5.2.5v1.1H9v-.2-.7-.3l-.2-.4c0-.3-.2-.3-.2-.5v-.1h-.2c0-.1 0-.2-.2-.2l-.2-.1v.1h.1l.2.2.2.3.2.4v1.2l-.1.1-.1.3h.1l.1-.2v.8l-.1.2v.2l-.1.1v.1l-.1.2v.5l-.1.2-.1.2v.2h-.1v.1H8v-.1h-.2v-.2H8l.2-.2v-.2-.1-.1l-.2-.1h-.3v.3l.1.4v.4h-.2v-.1-.4-.1-.1h-.1v-.1l-.1-.2h-.1l-.3.1-.1.5c-.1.1 0 .4-.2.5v-.4l.1-.4v-.1-.2l.1-.1-.2.4V20.2l-.1.2v.2l-.2.3v.7l-.1.3v.7c-.1 0 0 .2-.2.2v-.3-.4-.1s.1-.2 0-.2l.2-.4V21v-.3-.2-.2l.1-.3V20l.1-.2v-.2-.2-.1-.1h-.1V19.5l-.1.3V20.2l-.1.2V20.9H6v.3l-.1.4v.8l-.1.3v.2l-.1.3v.2l-.1.2v.2h-.1v.1l-.2.2-.2.2h-.2l-.2.2h-.3-.1c-.1.1 0 0-.1 0l-.2.1h-.8l-.6.1h-.8c-.1.1-.2 0-.2 0H1v.2H.7 2.4v.1H1 .9.6.3v-.1-.2l.2-.1H1l.5-.1h.2c.1 0 .2-.1.4 0h.7l.1-.1H3l1-.1H4l.1-.1.5-.2.2-.2.2-.1v-.1l.1-.2v-.2-.2s.1 0 0 0c0-.1.2-.2.1-.3v-.1-.1-.2-.2-.1-.2s.1-.1 0-.2h.1v-.3-.6-.1-.6-.1c0-.1.1-.2 0-.2l.1-.2v-.2-.3-.2-.2-.3-.2c-.1 0 0-.1 0-.2v-.1-.7-.4-.2-.2c0-.4.1-.8.3-1.1V15v-.2l.3-.6v-.4l.1-.2v-.1l.1-.1v-.2c.1-.2.3-.3.3-.5l.1-.3.1-.4.1-.4.2-.4v-.1l.1-.2v-.2-.3-.2-.1-.1-.2-.1-.2-.3l.1-.3v-.1-.2l.1-.6v-.7l-.1-.5v-.5l-.1-.3v-.3-.1-.2L7 5 7 4.8v-.1-.1V4v-.3h.3l.2.2.3.3v.2l.1.2.2-.1.2-.3.1-.2V4h.1l.1-.3h.2l.1.5V4.5l-.1.4-.1.2h-.3l.3.1.3.1h.1l.2.4V6H9l.2.4-.3-.1-.1-.2v.5l.1.1.1.1H9h-.2L9 7v.7l.2.2V8l.2.1v.2h.1l.2.2v.3a.4.4 0 0 1 0 .1s0-.2-.2-.3l-.2-.3-.2-.2V8L9 7.9v-.2l-.1-.2-.1-.3-.1.1V8.2h.1V9.3L8.7 9v-.2c-.2 0-.2-.1-.3-.2v.5l.2.2V9.7l.1.2V10h-.1c0 .2 0 .3-.2.4l-.1.2H8v.2c0 .2 0 .3.2.4l.3.2H9.3l.1.1h.2l.3.1h-.3v.1h-.2l-.1-.1H9 9h-.1-.1-.2-.1-.1-.2H8l-.2-.2-.1.3m17.7-.7v-.3-.3c-.2.1-.2.3-.3.5l.3.1m-.3-1.6V9l-.1-.1-.1-.1-.2-.3h-.2l.1.1.3.4v.8l-.1.2.1-.1.1-.3v-.1l.1-.2m-.8 1.1l.1-.1-.1-.1H24c-.1-.1-.1 0-.1 0v.2h.3m0 .3v-.1h-.1l-.1-.1H24v.7l.1-.1v-.2h.1v-.2m-.1 1.3c.1 0 0-.2 0-.1h-.2v.2h.2m0-.4H24l-.3-.1.2.1h.2m-.2.6s.1 0 0 0h-.1l-.1.2.2-.2m-.4-2.4v-.1c-.2 0 0 0 0 .1zm-1 9h-.2v-.1l-.3-.1H22h-.2l-.3.1h-.2l-.2.1h-.1-.2l-.3.1h-.7-.1v.1l.5.1H20.7l.6-.2.5-.2h.4l.1.1h.1m0 1.8v-.3l-.3-.1c-.3-.2-.7-.2-1-.3h-.2-.7l-.2.1h-.1c-.1 0-.3.1-.4 0h-.2-.3-.2-.2c0-.1-.1 0-.2 0l-.3-.2H18h-.2-.1-.5l-.2.1h-.2l-.2.1h-.2-.8-.5-.2l-.2-.1h-.1-.1-.1c-.1 0-.3-.1-.4 0 0-.1-.1 0-.2 0h-.3c-.1 0-.3 0-.3.2v.1l.2.3s.2.1.2.3c.1 0 .1.2.3.2l.3-.1h.7l.3.1.3.1H16.3l.4-.1h.3l.4-.1H18.7l.1.1H19l.3.1H20l.4-.1h1.3c0 .2.2.2.3.2l.3-.3.1-.3m0-3.3h-.1-.1v.2s0-.2.2-.2m-.2.4H22v.2h-.1v.1l.1-.1.1-.2m-.2-.3v-.2l-.2.4c.1 0 0-.2.2-.2m-.3 0v-.3h-.1v.2m-.3.5l-.1.1v.2l.1-.2m-.1-.8V17H21v.2h.1m-.2 1.5v-.1s-.1-.2-.2-.1h-.2-.1c0 .2.1.1.2.1l.1.3h.1l.1-.2m0-.9h-.1-.1c0 .3.2.3.2 0m-.1-.6V17l-.1.2v.1m0 1v-.1l-.2-.1h-.6-.2-.2l-.3.2h-.5s-.3 0-.2.1h.7l.4.1-.1-.2.2.1h.3s-.2 0-.2-.2h.2l.4.1h.2m-.3-.9c.2 0 .2-.4 0-.3v.3m-.2-.6s0-.2-.2-.1v.3c.1 0 .2 0 .2-.2m-.1.5l-.1-.2h-.1v.2h.2m-.1-1s.2-.2 0-.3l-.1.1V16.4m-.3.6c.1.1.2 0 .2-.2 0 0-.3-.2-.3 0l.1.2m0 .5v-.3h-.1v.3h.1m-.4-.3c.2 0 .2-.3 0-.3V17.2m0 .3v-.1c-.1-.1-.2 0-.2 0h.1zm-.4-.2l.1-.1c0-.1 0-.2-.2-.2v.1h.1v.2m0 1.7v-.1h-.2l-.1-.1h-.1-.1l-.3-.1h-.7-.3l-.2.1H15.8h-.1-.4-.2l-.3-.1h-.5c-.1 0 0 0 0 0H14h.3l.3.1h.2l.3.1h.1l.1.1h1.3l.5-.1h1.5m-.3-1.5v-.2h-.1v.2m0 .4s0-.3-.1-.2v.2m-.2-.2v-.2c-.2 0-.1.2 0 .2m0 .3l-.1-.2-.2-.1v.2h.1v.2l.1-.1m-2.1-6.5l-.3-.1v.3h.2v-.2m-.8.6c.1 0 .1-.1 0-.2v.2m-.9 6.7l-.1-.1h-.3l-.4.2h.5l.3-.1m-1.4-9v-.1h-.3c0 .1.2 0 .2.2l.1-.1m-.4 2H12c-.2 0 0 .2 0 0m-.3-1.5v-.3h-.2v.1l-.3.1v.3h.1l.3-.2m0 .4v-.2l-.3.2.2.4c.2 0 .2-.2.2-.3M11 8.4c0-.1 0 0 0 0h-.2l-.1.2V9h-.1V9c-.1.3-.1.6 0 .8l.2.4.1.1V10l-.1-.2-.2-.4v-.3l.1-.2v-.2h.1l.1-.3m-.1 2.7V11h-.2-.1l-.2.1.3.1h.2m-.3-.4v-.3l-.1-.1-.1-.2v.7h.2M9.1 5.4v-.1H9h-.1l.2.2v-.1zM8.7 4v-.2c-.2 0-.2.3-.2.4l-.1.2-.1.1v.2s0 .1 0 0l.1-.2v-.1h.1v-.1l.1-.1V4M8.6 6v-.1h-.1l-.1-.1H8s-.1 0 0 .1V6h.4L8 5.9H8l.2-.1h.1v.1c.1 0 0 0 0 0h.2m-.2 1l-.2-.1V7h.2m-.3.2V7l-.1-.3v.4H8m0-.5l-.2-.4.1.3m-.1 12.6h-.3l-.1-.2-.3-.1H7v.1l.1.1.2.1.1.2h.2l.2-.2m-.3-7.9l-.1-.3v.4h.1m0-5.8l-.2-.2v.5l.1-.2h.1m-.6 13v-.1h-.3.2zM26.5 24.2v.1h-.8l-.3.1H24.8h-.1c-.2 0-.2.1-.3.2l.2.2h-.1c0 .2.2.1.3.2h-.3-.1l-.1.1H24h-.8c-.2 0 0-.1-.1-.2v.1H23v-.1-.2l.1-.1.2-.1h.3l.2-.2h2.4s.2-.1.2 0M26.5 22.8v.2c0 .3-.3.3-.4.4h-.3-.3-.2l.4-.1h.2v-.1l.3-.1v-.2l.1-.6v-.1-.6-.2l-.1-.5v-.1h.1v.6l.1.2v1.2"/><path fill="#fff" d="M26.3 15.4l-.2-.2-.2.1-.1.3-.2.5V17v.6h-.2v-.2-.1-.1-.3-.4-.1-.3l.2-.5.1-.1.1-.3v-.3-.3-.1-.4-.1h-.1v-.1-.5-.2-.1-.1h.1V13.7l.1.2v.4l.1.2v.3l.2.2.1.5"/><path fill="#fff" d="M26.3 20.7h-.1v-.2l-.1-.3v-.5l-.1-.5-.1-.2-.1-.3-.2-.3v-.2-.1l-.1-.3v-.2l.1.1v.3l.2.2v.2l.1.2.1.2v.2c.1 0 0 0 0 0l.1.1v.7l.1.2v.7M25.3 23.4H25c0 .1 0 0-.1 0l-.2.1H24c0 .1-.1.2-.2.1h-.3-.1V24c0 .1 0 .1.1 0 0 .1.1 0 .2 0H25v.1h-.2-.3l-.3.1h-1c-.2 0-.2.1-.4 0h-.3-.1l.1-.2v-.1h.2c.1-.2.2-.2.4-.3h1l1-.1H25.3M24.6 5.2v.1h-.2v.3c0 .3-.1.4-.3.6H24V7l-.1-.2v-.1s-.1-.2 0-.2h-.1V7l-.2-.4v-.3.4l.1.3v.2s-.1-.1 0-.2h-.1v-.5-.2h-.1v.4h-.1v-.4-.1c-.2 0-.2.3-.2.5v-.2-.3l-.2-.1V6l-.1-.2v-.2-.2l-.1-.2-.1-.1h-.2l.1-.2h-.1v-.2l.2-.1h.2l.2.1.2.2.2.2v.1h.4l.1.2H24.3c0-.1 0-.2.2-.1m-.2.1l-.2.2H24l-.1.1v-.3h-.2l-.1.2-.1-.2v-.1l-.2-.2V5.4H23c-.1 0 0 .1 0 .2v.5l.1.1h.8l.2-.3v-.1-.4"/><path fill="#fff" d="M22.3 1.8v-.2-.1-.1l.1-.2.1-.2.3-.1.3-.2.2.1-.1.2-.3.2-.2.4h-.1v.2l-.1.3-.2.5v.3l.2-.1v-.1l.1-.1v-.2-.2l.4-.4h.2v-.1h.2l.2-.1h.2v.1l-.2.1-.3.3h-.1v.2l-.3.1-.1.4-.1.3-.2.2v.5s-.1.1 0 .1l.1-.2.2-.4.2-.2h.7l.1.4.1.1h.1l.2-.1h.1v.1l-.1.2v.1l-.1.3v.2h-.2v.2l.1.1v.1l-.2-.2v-.1c-.1 0 0 .1 0 .2v.1h-.1v-.4h-.1v.4l.2.2h-.2v-.1h-.2v-.4-.1l-.1.1V4.4l-.2-.1V4v-.2l-.3.1v.2l-.2.3c-.1 0-.2.1-.2.3v.1l-.1.2h.2v.1h-.2v.4l-.3.2-.2.2V6l-.1.1a3 3 0 0 0-.4.6L21 7l-.1.2-.2.3s-.1 0 0 .1l.4.1V8l.1.2v.2l-.2.2h-1v.1H20h-.1-.2-.5-.1-.2-.1c-.2 0-.3-.1-.4 0v-.1h-1.1v-.1h.4V8 8l-.2-.2c-.1-.2-.2-.3-.3-.2H17h-.3v-.2H19c.1 0 .1.1.2 0H19.5c.2.1.3 0 .4 0h.4v-.2L20 7H20 19.7v-.1H20.3v-.3H19.7v-.2h-.2l-.1-.3h-.5s0 .1 0 0h-.1l.3-.1H19.5l.1.1.1.2h.1v.1h.2v.1h.4l.2-.3.2-.3v-.1c.1 0 .1-.2 0-.2h.2v.2l-.2.3-.2.5v.2l-.1.2v.2h.2l.3-.4v-.1l.1-.2c.1-.2.3-.2.3-.4l.1-.2.2-.3.2-.5.2-.5v-.2l.1-.2v-.3-.5-.3V3l-.1-.2-.1-.3v-.2l-.1-.1-.2-.2c0-.2-.2-.2-.2-.3h-.2c0-.2-.2-.2-.4-.2l-.2-.1h-.2c0-.2-.2-.1-.3-.2h-.3-.1V.9h.2V.8.6.3.1l.2.1v.3c0 .1 0 .4.2.4h.2l-.2-.5.1-.3h.2v.7l.1.1V1h.2V.9.4 0h.3l-.1.4V1l.1.3h.2V.8.6l.1-.2h.4v.1h-.1l-.1.2v.1l-.2.1v.2l.2.2v.4h.2v-.2-.2V1 .8l.1-.1.3-.2.1.1-.1.3V1l-.2.2v1l.2-.1v-.3m1.8 1.9h-.2V4l-.1-.2v-.2l-.1-.1-.2.3h-.1l-.1-.2-.1.1V4H23v.2h.2c0 .1.1 0 .2 0h.2v.1h.2v-.1l.2-.5m-.6 1v-.4.4m-.4-1.5l-.2.2v.2l.2-.2v-.1m-2.5 5c0-.1 0-.3-.2-.4 0-.1 0-.2-.2-.2l.2.6h.2m-.6 0l-.2-.4c0-.2-.2-.3-.3-.3h-.7-.1l.1.4h.1v.2l.2.2h.9M22.3 23.7l-.1.1H22l-.2.1h-.2l-.2.2-.2.1-.2.2h-.2l-.1.1h-.1-.1l-.1.1h-.2l-.2.2h-.2l-.2.1-.2.1H19 19v.1h-.2-.2-.2v.1h-.1l.5-.3.3-.2.3-.2.5-.4h.1l.3-.3.3-.1H22.3"/><path fill="#fff" d="M21.9 4.5l-.2.3v.3l-.2.1h-.2c-.2 0-.2.1-.2.2v.2h-.2v-.2l.2-.2V5l-.1-.1h.1l.2-.4-.1-.6-.2-.4-.4-.3h-.3-.1c0-.1-.2 0-.2 0h-.2-.2-.1-.2l-.2.1H19v.1h-.2l-.1.1-.2.3v-.1-.1-.2h-.2v-.1h-.2v.2h-.2v-.1V3H18.3v-.2l-.3-.2v-.2l.1-.2.1.2.2.3.1.2.1-.1.3-.1.2-.1v-.1h.5v-.1H20.5c0-.1 0 0 0 0l.3.1h.2l.2.1.2.2V3l.2.1h.1l.1.3v.2l.2.4v.5m-.1-.5v-.2h-.4V4.1h.1c.1.1.3 0 .3-.1m-.4 1.2c.2 0 .3-.2.2-.3l-.2-.1h-.1V5.2h.1m.2-1.7c0-.2-.1-.2-.2-.2-.2 0-.3.1-.3.3l.2.2.3-.1v-.2m.2 1s-.1-.2-.2-.1l-.2.1V4.7c.3 0 .4-.1.4-.3m-1-1.1c.4 0 .5-.4.3-.5H21h-.1c-.1 0-.2 0-.2.3 0 0 0 .2.2.2m-.3-.4v-.2l-.1-.1h-.2l-.1.2V3l.2.1h.2M20 3v-.3l-.1-.2c-.1 0-.2 0-.3.2v.1c0 .1.1.2.3.2h.1m-.8.2c.2 0 .3-.1.3-.3v-.2h-.3-.1v.5m-.1 0V3l-.2-.2c-.3 0-.3.4 0 .5l.2-.2m-1 0c.1 0 .2 0 .1-.1v.1m0-.5c0-.1 0-.1 0 0"/><path fill="#fff" d="M21.7 4.4l-.1.2c-.1 0-.2 0-.1-.1h.2M21.6 4c.2 0 0 .1 0 0h-.1c0-.1 0-.1 0 0h.1M21.5 5V5h-.1s-.1 0 0 0c0-.1 0-.2.1-.1M21.5 3.4v.2l-.3-.1s0-.1.1 0c.1 0 .1-.1.2 0M21 3v.2H21s-.1-.3 0-.2h.1M21 4.8V5h-.2v.6h-.1v-.1l-.1-.1-.2-.2h-.1v.5H20v-.2-.2h-.2-.2s-.1.1-.1 0v-.4-.3h-.2l-.2.3v.4l-.2-.1h-.2c-.1 0-.3 0-.3.2l-.1-.1-.3.1v.2H18l-.1-.2.1-.1V5h.1v-.1h-.3v-.1h.2v-.1h.2v-.3l.2-.4v-.2h.4l.3-.1c.1 0 .2-.2.3-.1h.2l.2-.2h.5l.4.4.2.3V4.8m-.2-.7v-.2l-.2-.2-.2-.1H20s-.1-.1-.2 0h-.5l-.5.2-.4.2h.7s0 .1 0 0l.3.1h.3c.3-.2.6-.2.9 0"/><path fill="#fff" d="M20.8 5.6l-.2.2-.1.1-.1.2h-.1l-.2.1H20h-.1l-.1-.1-.3-.3h-.3v-.1h.1l.3-.1h-.2v-.1h.3l.1.1v.2h.2v-.1l.1-.1h.2v.2h.1l.3-.2v-.1M20.5 2.8V3h-.1v-.1h.1M20 2.8l-.1.1h-.2l.1-.1h.1M19.8 15.7h-.2v.4l-.2.1-.2.1H19l-.3.1h-.2l-.2.1h-.1c-.2 0-.2.2-.4.3l-.4.4h-.1l-.2.2H17 17l-.2-.1.4-.5 1-.8c.2 0 .5-.1.6-.3 0 0 0-.1.1 0 0 0 .2 0 .2.2l.2-.1.3-.3.2.2m-.8.3l-.1.1m-.3 0l-.2.2.2-.1m-.5.2l.2-.2H18v.2m-.3.2v-.2s-.1.2 0 .2m-.3.2v-.2.1h-.1c0 .2.1.2.1 0m-.3.5h.1V17 17v.1h-.1v.1M19.7 7.2v.2h-.1l-.2-.1h.2v-.1h.1M19.7 6.9c-.1.1-.3.2-.4.1h-.2-.1-.1-.2-.1-.5-.2-.4H16.6l.1-.1h1.1l.2-.1h1.3l.4.1M19.7 8.1v.2h-.2l-.2-.2v.2L19 8V8l.2.2v-.3c.1 0 .2 0 .3.2v-.2-.1l.2.3M19.5 6.5l-.1.2H19l-.1-.2.1-.2h.2c.2 0 .3 0 .3.2"/><path fill="#fff" d="M19.4 5.5h-.3l.1.2c-.2 0-.2.1-.2.2l-.4.1h-.1-.1l-.2-.1-.1-.2h-.2v-.2h.2l.2.2.1-.3h.1c0 .2.2.3.2.3l.3-.2h.4M19.3 3s0-.1.1 0h-.2.1M19.3 9.6zM18.9 3.2h-.3.3"/><path fill="#fff" d="M13 4l-.1-.5h-.1l-.1.2V4l-.2.4v.2l-.1.2h-.1v-.1-.1l.1-.2-.1.2v-.2s-.1 0 0 0l-.1.1v-.1H12V4.6l-.1.1h-.1c-.2 0-.2 0-.1-.1l.1-.2v-.1l-.2-.2v-.2l-.1-.1-.2-.4v-.1h.3l.1.2h.1l.3-.6H12.8l.1.1.1.2.1.2v.2l.1.2h.1v-.1V3a.7.7 0 0 1-.4-.5c-.1-.4-.4-.6-.6-.9l-.2-.1v-.2s.3-.1.4 0h.1c.2 0 .2.2.3.3l.1.1v.7h.2v.1h.1l.1-.2c0-.1-.2-.3-.1-.5l-.2-.7-.2-.2h-.1c-.1-.2-.2-.3 0-.4.3 0 .4.2.5.3v.2l.1.2v.5l.2.2v-.1-.3-.2-.6l-.3-.4V.3h.3c.2.1.3.4.3.7V1.3c-.1.2 0 .2 0 .2.2-.1.1-.3.2-.4V1 .6.5l-.2-.1V.2.1h.3v.2h.1V1.3h.2V1 .6.5.3 0h.2l.1.2V1c.2 0 .3-.3.3-.5V0 0h.2v.4c0 .2-.2.3 0 .4l.3-.6h.2v.2c-.1.1-.3.3-.1.4h.2v.3h-.3-.1-.4l-.4.2h-.2l-.5.5-.3.6v.3l-.2.3v.7l.1.5v.3l.2.5.2.2v.2l.2.3.1.2V6l.8 1h.1v-.4L15 6l-.1-.2c-.1-.2-.2-.5-.4-.6h-.2-.2l-.1-.3v-.1-.1l-.2-.3c.1 0 .3.2.4.1h.1v-.2l-.1-.2.2-.2V4.5l.1.2v.1l.2.2.1.4.1.2h0v.2h.2V6l.1.3v.1l.3.1H16v-.2l.2-.1h.2c0-.1.2 0 .2 0h.8l.1-.1h.2l.1-.1.3.2H18.9c0 .1 0 .2-.1.1h-.3-.1l-.3-.1h-.1-.2-.2l-.2.1H17h-.4-.4l-.3.3h-.2-.4V7H16.6l-.1.1H16.2 15.5h-.2v.1c-.2 0-.1.2-.2.2h.2s.1.1.2 0l.1.2H16v-.1H16.7l.1.1c-.1 0-.2 0-.2.2V8l.2.3.1.1.3.1h.2c-.2.2-.3.2-.4.1h-1-.4-.2H15h-.1-.1-.1l-.1-.2-.1-.2v-.2-.3l.1-.1h.2v-.1h.1v-.1l-.1-.1V7h-.1l-.2-.3-.1-.3-.4-.6-.2-.2-.2-.1-.2-.3V5l-.1-.2h-.1v-.1-.1h.2v-.3h-.1l-.2-.2V4m3 4.3v-.1V8 8l-.1-.2-.1-.1c0-.2-.2-.1-.2 0 0 .2.2.2.2.3l.1.2s0 .1.2 0m-.7.2V8l-.4-.5h-.3l-.2.4v.2l.2.1h.2l.2.1H15.5m-1-3.4c0-.2 0-.3-.2-.4-.2 0-.2.2-.2.3 0 .1 0 .2.2.2h.1M13 3.2c0-.1 0-.4-.2-.3l.1.2.1.1m-.3.7v-.5-.3l-.2.1-.1.4-.1-.4-.2.3h-.1l-.2-.1.1.5h.1c0 .1.1 0 .2 0h.5m-.6.5v-.2.2m0 .1v-.1.1M18.8 7.1v.2h-.4v-.1c.2 0 .3-.2.4 0M18.6 1.6v.8l-.4-.2H18v.1H18c0-.1-.1 0-.2 0 0 0-.1 0 0 .1v.4h-.5l.2-.3v-.2c.1 0 .1 0 0 0h-.1-.1l-.1-.2v-.3-.2l.4.2v-.3l-.2-.2h1l-.2.4h.4m-.2.4v-.3l-.3.1V2c0 .1.2.2.3.1m-.3-.5v-.2H18h-.1-.3l.2.3h.2l.1-.1m0 .4s0-.2-.2-.2h-.1V2c0 .2 0 .2.2.1V2m-.3.6l-.1.1h.1m-.1-.6V2c-.1 0-.2-.1-.2 0-.1 0-.1.1 0 .2h.2"/><path fill="#fff" d="M18.3 3.4v.2l-.1.4-.1.3v.4H18c0-.1 0-.2-.2-.2h-.2v-.1-.5l-.1-.1v-.2h.2v-.1H18v.2c.2 0 .2-.1.2-.2v-.1M18 4c.1 0 0-.1 0-.2h-.1-.1V4l.2.1m0-.3v-.2h-.1l-.1.2h.2m-.2.6c.1 0 .2 0 .3-.2h-.3v.2M18.2 6.3s.1.1 0 .2c0 0 0 .1 0 0v.1h-.4-.4c-.1-.1 0-.3.2-.3 0 0 .1.1.2 0h.1c.1.1 0 0 .2 0h.1"/><path fill="#fff" d="M18 3h-.2v.5l-.2-.1c0-.1-.2-.2-.2 0h.1v.2l-.2-.3h-.2v.3h.1l.1.3V4l-.8-.4h-.1l-.2-.1h-.5-.1v-.1h.5l.5.1v.1l.5.2v-.3H17c0-.2-.2-.2-.3-.3l-.3-.1H16l-.4-.1h-.4l-.1.1-.2.1h-.1l-.2.2v.1l-.2.4h-.1v-.2l-.2-.1c-.2 0-.3 0-.3.2l.2.2s0 .1 0 0l-.2.3V4v-.2s-.1-.1 0-.2v-.2h.1v-.1c0-.2.2-.3.3-.4h.1l.1-.3.2-.2h.1l.3-.1h.5l.3-.1h.1l.2.1v.1h.5l.1.2H17.1l.2.2h.1V3h.5m-.2.2v-.1h-.1v.1m-.5-.1v-.2h-.2c0-.1-.1 0-.2 0l.1.3.3-.1m-.6-.1c.2 0 .2-.3 0-.3h-.3c0 .2 0 .2.2.3h.1m-.4-.3c0-.2 0-.3-.2-.3h-.1v.1l-.1.2.2.2h.2v-.1-.1m-.6.2v-.3l-.1-.2h-.1c-.2 0-.2.3-.2.4l.1.1h.3m-.4 0l-.1-.1-.2-.1h-.1l-.2.2.1.2h.3l.2-.2m-.5.6V3h-.3-.1v.4H14.6M18 7.3h-.2-.1-.2v-.1h.4"/><path fill="#fff" d="M17.8 4.8h-.1-.1V5.2l.2.2V5.6c-.2.1-.2.2-.2.3l-.3.1H17h-.2l-.2-.2v-.2h-.4.2l.2-.2h.2l.2.2v.1l.2-.3v-.2L17 5h-.3-.1l-.1.2v-.4l-.3-.3h-.1v.1l-.1.1v.5h-.2c-.2 0-.3 0-.3.2v.1l-.2-.3-.2.3v.1H15v-.3V5h-.4.2v-.3l-.1-.1v-.1-.1V4 4l.2-.4.2-.1.3-.1-.2.1a1 1 0 0 0-.3.3v.1H15.9l.2.2h.1l.6-.1h.5v.2s.1.2 0 .2v.4h.3v-.2.2h.2m-.1.8v-.2l-.3-.2v.4H17.7M17.4 7.9v.3l-.3-.1v.1H17h-.2V8l-.1-.1.2.2V8h.4s-.1 0 0-.2M17 3v.1h-.2V3h.2M16.9 7.1v.2h-.1-.1-.1v-.1h.3M17 25h-.2-.2-.1l-.1-.1h-.2l-.1-.1h-.3c0-.2-.3-.2-.4-.3h-.2l-.3-.2h-.2-.1c0-.1-.1-.2-.3-.2h-.2l-.2-.2-.2-.1h-.3v-.2H15.3l.1.2.3.2.2.2.6.4v.1l.4.2.1.1M16.8 6.5l-.2.2h-.3s-.2 0-.1-.2h.2l.1-.2h.2v.1"/><path fill="#fff" d="M16.5 5.7v.1h-.1-.2L16 6l-.1.2h-.6l-.2-.3H15h.1v-.2l.2.1.3.1v-.2l.2.2c0-.1 0-.2.2-.3l.2.1v.2H16.5M16.5 2.8v.1h-.2v-.1h.2M16 7.2v.1l-.4-.1h.2L16 7v.1M16 2.7c0 .1-.1.2-.2 0h.2M15.5 2.7l-.1.2h-.1v-.2h.1M15.2 8s.1.2 0 .2L15 8l-.1.2c-.2 0-.2-.2-.3-.2v-.1h.2v0H15.2l.1.2M14.8 3s0-.2.2-.1c0 .1-.1.2-.3.1M14.5 3.3l-.1.2s-.1-.1 0-.2M14.4 4.9l-.1.1c-.1 0-.2 0 0-.1M14.2 4.3v.1H14c-.2 0 0-.1 0 0l.1-.1M14.2 3.8c0-.1.1 0 0 .1h-.1v-.1M13.5 23.8h-.1v.2h-.2-.2-.1-.1-.4-.1l-.2-.1h-.5-.1v-.2h.4c.2 0 .2-.1.1-.2H12l-.4-.1h-.2l-.5-.1h-.2V23h.3l.2.1H12.3l.1.1h.1l.4.1v.1h.3c0 .1 0 0 .1 0h.1v.2h.1M13.3 4.6H13l.1.2H13l-.1.2V5.7l-.1.1V6.1h-.1l-.2.1v.5h-.1V7h-.2.1v-.1l.2-.3v-.2h-.1V6.6l-.2.1V7l-.2.1V7l.2-.2v-.2-.2-.1.4l-.1.1-.1.2h-.1v-.1l.1-.1.1-.2v-.3.2H12V6.9h-.1v-.1-.2-.1.2l-.2.1v-.1l.1-.2-.1-.2c-.2-.2-.1-.8-.4-1h.4v-.4H12l.1-.3v.6l.1-.1c0-.2.2-.2.2-.3h.1l.1-.1c.1-.2.3-.2.5-.2v.1h.1l.1.1M12.7 6c0-.2.1-.5 0-.8V5l-.1.2-.1.1v-.1-.1-.2l-.2.2-.1.2s-.1 0 0 0C12 5.2 12 5 12 5h-.1v.4l-.2-.1h-.2l.1.1v.1c.1.2 0 .5.3.5l.2-.1H12.7M12.4 24.8h-.1v.1H12v.1l-.3-.1h-.4v-.1h.2l-.5-.1h-.2v-.1c.1 0 0 0 0-.1l-.1-.2h-.1-.1l-.1-.1a4 4 0 0 1-.5 0h-.3l-.5-.1H9 8.7l-.2-.1h-.2v-.1H9l.3.1h1.2l.4.1h.7l.2.1.4.3.2.2m-.9-.2h-.1.1"/><path fill="#fff" d="M11.4 23.7v.1H11h-.1-.7-.2-.2-.2c-.1 0-.3-.1-.4 0l-.6-.1h-.2-.1l.1.2H8c-.1.1-.1 0-.2 0v-.1-.2l.1-.2h.1l.2-.2V23 23v-.3-.2-.2-.6l.1-.2.1-.5V21v-.1-.1-.2-.1-.1l.1-.2v-.2-.3l.1-.2v-.1-.2-.2l.1-.2.1-.4.2-.5v-.1h.1v.4l-.1.4v.2l-.1.4v.2l-.1.5v.3l-.1.5V23.3H9.8v.1h.2l-.2.1h-.2-.3-.2H9h.1l.5.1H11l.3.1M11.3 24.8s0 .1 0 0h-.4-.3-.1-.3-.2-.8l-.3-.1h-.2-.2-.1-.7v-.1H8.4v-.1h2.6v.2h.3l.1.1"/><path fill="#fff" d="M9.2 22.6v.2l.3.2h.8l.3.1v.1h-.3-.2-.5l-.3-.2h-.1l-.1-.2v-.3-.4-.2l.1-.4v-.2-.2-.1-.2s.1 0 0-.1l.1-.2v-.1-.2-.4-.1-.2l.1-.1v-.1-.2-.1-.2l.1-.1h.1V19.7h-.1v1c0 .1-.1.2 0 .2-.1 0-.1.2 0 .2l-.1.2v.4l-.1.4v.6M10.3 16.6v.2l-.1.3v.4l-.1.2v.1l-.2.4v.1l-.2.2-.1.2v-.1c0-.2 0-.4.2-.6l.2-.6v-.2-.1-.2-.4-.2-.3-.2-.3l-.1-.1-.1-.2V15l.1-.1.2.4v.4l.1.1v.7M9.8 6.4v.4h-.1l-.2.1h-.1-.1l-.1.1h-.1v-.1-.1l.1-.2.2-.1v-.1c.2-.1 0-.2 0-.3l-.2-.2h.1l.2.2.2.2.1.1m-.2.3c0-.1-.1-.1-.2 0h.2M8.4 5.8zM7.4 21.3v-.1-.2l.1-.3v-.1-.1h.1V21.1l.1-.2v-.4h.1v-.2H8v.2H8.2c0 .1-.1.2 0 .2L8 21l-.1.2-.1.8v.2l-.1.6v.4s-.1.3 0 .4v.5c.1.1 0 .3-.1.3v-.5-.3-.4h-.1l-.2.7v-.3-.3-.3l.1-.3v-.2-.2.3l-.1.3v.5H7v-.3l.1-.5v-.2l.1-.3.1-.7v-.1M7.8 24.6v.1h-.1-.3-.2H7h-.2-.4H6h-.8l-.4.2h-.2-.1l-.3.1H4 2.5s.2-.1.2 0l.2-.1H4.3l.5-.1H5v-.1c.3 0 .4-.1.5-.2l.1-.1.1-.2.2.1h-.1v.1H6.7c.2 0 .3-.1.3-.2v.2h.1c0 .1 0 .2.2.2h.5"/><path fill="#fff" d="M7.2 23.4V24l-.1.2H7V24h-.2-.1-.5H6l-.1.3h-.2l.4-1 .1-.3h.1V23.3l-.1.4h.9v-.3z"/><path fill="#fff" d="M6.6 20.6v1l-.2.8v.6h-.2v-.3-.2-.2s.1-.1 0-.1l.1-.3v-.5h.1V21l.1-.5zM19.2 25.8H19.6l.4-.1h.2l.5-.1-.1.1-.2.2h.1l.5-.2v.1l.7-.2H23.4l.2.1h2.1v-.2h.3l.2.1h1c0 .2.2.1.3 0H28.5s0-.1 0 0c.1 0 .2-.1.2 0v.1h.2l.4-.1h.5c0-.1.2-.1.2 0h.4v.1H30.7l.3-.2h.8s0 .1.1 0h.1l.1.1h.8c.1 0 .3-.1.4 0 0-.1.1 0 .2 0h.1c0-.1.1 0 .2 0v-.1H34.8v-.1-.1h-.5-.2c0-.1.1 0 .2 0H34.7c0-.1 0 0 .1 0l.2-.2h.1v.1l.2.1v.2H35l-.1.1h-.2l-.2.1h-.4-.2-.7-.1s-.2.1-.2 0l-.4.1H32s-.2.1-.2 0l-.3.1H31.2 31c-.2 0-.3.1-.4 0 0 .1 0 .1 0 0l-.2.1h-.2l-.6.1h-1.1l-.2.1H28h-.3-.2-1.1H25.8l-.1.1h-1.2v.1H24 24h-.2-.1-.2-.2-.1H22h-.9-.2-.1-.1-.1-.1-.6-.2l-.1-.1H19h-.5c-.2-.1-.3 0-.4 0l-.1-.1h-.3-.1-.4-.1-.2l-.3.1h-.4H15h-.2-.7H13h-.3-.2-.1H11.8h-.1H10.3h-.1-.4-.2l-.6-.1h-.3-.2l-.4-.1h-.2-.1s-.1-.1-.2 0l-.1-.1H7h-.4l-.3-.1h-.4l-.3-.1-.4-.2h-.4-.6H4c0-.1 0 0 0 0l-.3-.1h-.2-.6-.2-.2-.2H2 2h-.2l-.1-.1h-.2H1 .9.8.6.4.3c-.1 0-.1-.1-.1 0l-.1-.2c-.1 0-.1-.2 0-.2h.2l.4.2H5.8l.3.1H7.7v.1h.7v.1H9v-.1h.2l.4.1H10.9l.6.2-.1-.2H12l.1.1h.5l-.3-.2.4.1H13.8v.1h.5s.2-.1.2 0H15.1l.2-.1h1l.2.1h.4l.2.1h.2l.3.2H18.5l.5-.1h.2"/><path fill="#fff" d="M35 25v.1h-.4-.2l-.3-.1h-.2-.2-.3-.5-.1l-.5-.1h-.1-.3-.2-.2l-.2-.1c-.2 0-.4 0-.5-.2h-.3v-.1l-.1-.1-.2-.1-.1-.2-.2-.3v-.2l-.2-.2s0-.1 0 0v-.5-.2-.1s-.1-.1 0-.2l-.1-.2V22v-.1-.2-.2-.3-.2-.3l-.1-.2v-.1-.2l-.2-.1V20.7l.1.6v1h.1v.8c0 .1.2.3.1.5h-.1v-.3-.2-.1c-.1 0-.1 0 0-.1l-.1-.1v-.3-.2-.2c-.1 0 0-.1 0-.1v-.3l-.1-.3V21v-.2c-.1 0 0 0 0 0l-.1-.3-.1-.3v-.1L29 20v-.1l-.1-.2-.2-.4-.2.1-.1.1-.2.1-.2.1V22s.1 0 0 .1v-.4l-.1-.3V21 21l-.2-.5v-.3-.1c-.1-.1 0-.3 0-.4v-.1l.2-.2v-.1l.1-.2h-.2v-.3l-.2-.2h-.2-.1l.2.5-.2-.1-.1-.1v.2l.2.2v.3h-.2l-.1-.2v-.2L27 19l-.2-.2v-.1l-.1-.3v-.2c0-.2-.2-.3-.1-.4v-.3s-.1-.1 0-.2V17l.1.1.1-.4c0-.2.1-.3 0-.4l.2-.3.2-.1c0-.2.1-.2.2-.3l.2-.2c0-.1 0 0 0 0-.2 0-.4 0-.4.2l-.2.1v.1l-.3.3v.1l-.2.3h-.1v-.1-.1l.2-.3.2-.3.2-.4.3-.3v-.3c0-.2.2-.3.1-.5l.1-.2v-.1h-.2l-.2.2s-.1 0 0-.1h-.2v-.2-.1-.2-.3h.1V13l.1-.2v-.1H27h-.1-.1v-.3c-.1 0-.2 0-.1-.1l-.1-.1V12h1.2c.2 0 .3-.1.3-.3v-.3l.1-.4h.1v.4l.2.3v.1l.1.2v.2l.2.4v.2l.1.3.2.6.1.3.1.3c0 .3.2.6.3.8l.3.5v.5l.1.2V22l.1 1.2.2.4.2.3s.2 0 .2.2h.2l.6.3H33l.2.1h.6c.2 0 .3.1.4 0 0 0 0 .1 0 0l.2.1h.2s.2.1.2 0l.1.1.2.2"/><path fill="#fff" d="M34 25.2v.1h-.2-.2-1.2-.8-.4-.1l-.2-.1h-.5-.1L30 25h-.2-.1c0-.1-.2 0-.2 0-.1-.1-.3 0-.4-.2h-.8-.3l.2-.1v-.1h.1v-.3c0-.1-.1-.2 0-.2l.1.2.4.1h.7v-.1l-.1-.1.2.1h.1v.1l.1.1c.2 0 .2.1.3.2h.3c0 .2.2.1.3.2h.2l.3.2H34"/><path fill="#fff" d="M29.5 24.2h-.1l-.2-.1h-.3-.7V24v-.2-.1-.1l-.1-.4V23v-.4L28 22h.1v.7l.1.3v.5l.1.1.5.1h.3v-.1h.2v.3l.2.2"/><path fill="#fff" d="M29.2 23.5v.2l-.1-.3v-.2s-.1 0 0-.1L29 23v-.1-.4l-.1-.4v-.3-.2-.2-.2c0-.2-.2-.3-.1-.5v-.2-.1l-.1-.4c0-.1 0-.3-.2-.5.2 0 .2.2.3.3v.4l.1.1v.5l.1.2v1.3l.1.1v.5l.1.4v.2M28.7 4.6V5c-.2.3-.2.6-.2.9v.7l-.2.8-.1.7v.5c.1 0 .2.3.1.4l.1.3V11.1h-.2v-.2l-.2.2v.4l-.4.1h-.2a4 4 0 0 1-.5 0h-.2-.1v.1h-.1-.2c.1 0 .1-.1.2 0h.1l.2-.1h.1l.3-.1h.1l.1-.2v-.1l.1-.3v-.3l-.2-.3v-.1-.1-.2H27v-.3-.2-.2l.1-.3v-.1-.2c0-.2.2-.3.2-.3l-.2-.1c0-.2.1-.2.2-.3v-.2c0 .1-.2.2-.3.1 0-.2.3-.2.3-.5l.1-.4-.1-.1c-.1 0-.2 0-.2.2l-.2.2v.4h-.2v-.5h.2s.1 0 0-.2v-.1-.3h.1l.3-.2h.2s.2 0 .2-.2h-.2l.1-.2V6h.2l-.2-.1v-.1l-.2.1-.2.1.1.1-.2.2H27h-.2v.1h-.1v-.1l.1-.2-.2.1-.2.2H26c.1 0 .3 0 .3-.2l.1-.2v-.1-.1l.2-.2.3-.1V5h-.1v-.5-.1-.2-.1V4h.1c0-.1 0-.2.2-.2V4h.1v.1l.1.3.1.2.1.2.2.1h.2v-.2l.4-.6.3-.1V4.7m-.2.4l.2-.4v-.2c-.1 0 0 0 0-.1h-.2-.1l-.2.3v.2l-.2.2-.1.1.3.1V5l.2-.2c0 .1 0 0 0 0l.1.2v0m0 .5c-.1 0-.2 0-.2.2l.1.2v-.1l.1-.3m-.7.2h.1M27.3 5.1v-.2l-.1-.3-.1-.1v-.2-.1L27 4V4l.1.3v.1l.1.3V5l.1.1h.1m-.3.3h.1c0-.2 0-.3-.2-.3V5.2zm-.4.5v-.1l-.1.2M28.1 24.2v.2s-.1 0 0 0l-.1-.1V24 24v-.3s-.1 0 0-.1l-.1-.2V23v-.2h-.1v-.3l-.1-.5v-.4-.1-.2l-.1-.1-.1-.4-.2-.3-.1-.2v-.2-.1-.2l-.1-.3.1.2.1-.1c.2 0 .2.2.3.3v.7l.1.3v.2l.1.6V22.1l.1.3V23.2l.1.5v.1l.1.2v.2"/><path fill="#fff" d="M28 24.9H28l-.4.1h-.9-.1-.2-.7-.2a1 1 0 0 1-.3 0h-.3.2s.1-.1.2 0l.2-.2h2v-.1l.3-.1v-.2-.3-.2-.5-.2-.3-.2s-.1-.2 0-.2V23.4l.1.1v.7c0 .1.2.3 0 .4v.1h-.1v.1h.3"/><path fill="#fff" d="M27.2 23.9v.2l-.2.2h-.3-.2c0-.1.2 0 .2 0v-.1h.4V24H27h-.2v-.2h-.2v-.2-.2l.1-.2v-.3-.5-.3-.3-.2l-.1-.3v-.2-.3-.2l-.1-.4V20v-.2-.3l.1.5v-.3h.2v.7l.1.2v.2c0 .1.1.3 0 .4l.1.3V22.1s.1.2 0 .2l.1.1V23.7l.1.3M27.2 10v1H27l-.2.2h-.1l-.1.1-.3.1h-.1-.2l-.3.1H25.4h-.3-.2.4v-.1-.1h.7l.2-.1.1-.1V11l.1-.3v-.1-.1l.1.1H27v-.2-.3l.1-.1zM26.7 7.6h.1v.5h-.1v.1l-.3.4-.2.2-.1.2-.3.3.1-.4.3-.4.4-.4v-.2l.1-.3"/><path fill="#fff" d="M26.7 19.4V19.7l-.1-.2-.1-.3V19l-.1-.2-.1-.4v-.1-.2l-.1-.2v-.2-.2-.1-.2-.5h.1l.1-.2h.1V16.9l-.1.2v1.4l.1.2v.2l.1.3v.2s.1 0 0 0v.1M26.7 23.8v.1h-.3-.1-.3-.1l-.5.1H25v-.1h.2s0-.2.2-.2h1l.2-.1v.2h.1M26.6 7v.2H26.3V7H26l-.1-.1-.1-.4h.2v-.2h.2l-.1.1.1.1H26.5v.1l-.2.2c0-.1-.2-.2-.2 0h.3l.2.2M20.3 10h-.5v-.1h-.1-.5-.2-.1-.5-.1-1.4-.1-.5-.1-.1-.2-.2-.1-.1-.4-2v-.1h-.4-.1a2 2 0 0 0-.5 0v1c-.1 0 0 0 0 0l-.1.1v.3l.3.3V12.4H12v.5l-.1.2v1s-.1.1 0 .2v.1 2.4c.1.2 0 .3.2.4v.4l.1.2.1.3v.2l.1.2v.1l.2.2v.1h.2l.3-.3h.3l.1-.1h.5v-.1l.1-.2V18l.2-.5v-.1l.1-.2.1-.3v-.1l.2-.4.1-.2V16l.2-.3.3-.8.4-1.3.2-.4V13l.1-.2v-.1-.2l.1-.2v-.1c0-.2-.1-.2-.2-.2h-.4-.3-.1-.4l-.2.1V12l.3-.1v-.2h.2v-.1l.2-.1.1-.2.2-.1.2-.2H16.3l.1.2.1.1v.1l.1.2v1.5l-.1.3v.2l-.2.2v.2l-.1.2v.3l-.1.1v.3H16c-.1.2 0 .5-.2.6V15.8l-.1.4-.1.3v.2h-.1v.4l-.1.2v.8h.4l.3-.1.5-.5h.1l.1-.2h.2v.1h.1l-.4.5h.3v-.2h.1v-.1c.1 0 .3 0 .3-.2h.1l.1-.1v-.1l.2-.1s.2.1.2 0v-.2h.4v-.2s.1-.1.2 0l.2.1v-.2h.5v-.2h.1l.1-.1s.1 0 0 0v.1l.1.2h.1v-.3-.2h-.1v-.2-.2h.2v.1l.3-.1.1.2.1.3v.1h.2v-.1c.2 0 .1 0 .2.2V16.7h.1l.2.1.2-.1.2.2h.2l.2.3h.2c0-.1 0 0 0 0h.5v.6l-.2.2c-.2 0-.1.1-.1.2v.2l-.2.2.4.1.2.1.4.2.1-.2v-.2l.1-.2v-.1-.1l.1-.2v-.1-.2-.2l.1-.3V17s.1-.2 0-.2c.1-.1.2-.3.1-.5v-.2c0-.1.1-.1 0-.2l.1-.2v-.3-.4-.2l.1-.1v-.2-.3-.2-.3-.3-.4-.3h-.2v-.2-.4l-.2-.2v-.1l.1-.1v-.3H23.8v-.2-.6-.3c-.2 0-.2-.1-.2-.2h-.1V10h-.1-.3l-.2-.1h-.1v.2l-.2-.1h-1.2-.1H20.8h-.3-.1-.2M7.7 5v-.2-.3l-.2-.2V4h-.1l-.2-.2-.1.6.1.2v-.1l.1-.2h.1v.3l.2.2.1.1m0 6.7H11.3l.1.1h.3l.1.1.2.1-.1-.1v-.2-.1h.2c0-.1-.2-.2-.3-.1h-.2s-.1 0 0 0v-.1h-.2l.2-.1v-.1s-.1-.1-.2 0l-.3.1H11 10.3 10l-.1-.1h-.3L9 11H9h-.1-.2l-.1-.1v-.3-.3c.1 0 0 .1 0 .2l.2.2.2.2H9.3v-.2-.2-.1h.1l.2.4h.1l.1.2.2.1.1-.7V10v-.2-.3L9.8 9V9v-.1l.1-.1v-.3h.1l.2-.1.2-.2.3-.2h.1l.2-.1.3-.2h.2l.2-.1.2-.1h.2v-.1h.2l.4-.2.4-.1h.2v.1c.1.1 0 .1 0 .2l-.1.1-.6.4h-.1c-.1 0-.2 0-.2.2L12 8H12l-.2.2-.2.2-.3.1-.1.2-.1.1H11V9l-.1.1v.4l.1.3s0 .2.2.3h.1V10H11.7l.2-.2v-.2l.1-.1c.1 0 .2 0 .1-.2l.3-.1V9h.6l.2.1c0 .1.1.1.1 0l.1.1v.2H16s0 .1 0 0H16.9c0 .1 0 0 0 0h.7l.3.1h1.4a19.1 19.1 0 0 0 1.8 0H22.4c0-.2 0-.3.2-.3h.6l.4.1.1.2h.1v.1h.1l.1.3h.2l.1.1h.1l.2-.3v-.2s.1 0 0 0l.1-.3-.1-.3h-.1v-.1s-.1 0 0 0l-.4-.2s0-.2-.2-.2l-.2-.2h-.1v-.1h-.2l-.1-.1L23 8l-.2-.1-.2-.1h-.1c-.1-.2-.2-.1-.3-.2l-.2-.2c0-.2.2-.3.3-.3l.5.1h.2l.4.2h.1l.1.1h.1l.1.1h.1l.1.1h.2v.1h.1l.3.2h.1l.2.1.2.2.1.1h.1v.2h.1V9h.1v.2a2.8 2.8 0 0 1 0 .3v.2l-.1.3v.1a16.3 16.3 0 0 1 0 .7v.5L25 11h-.2l-.1.1v.2l.2.2s0 .1-.1 0h-.2l-.2-.1h-.1l.2.2h-.3-.1v.1h.4v.1l-.3.1v.2h.4s.1-.1.2 0l.4-.1h1.3v.2h-.1-.1-.2-.1-.2-.1v.6l-.1.1v-.1-.2l-.1-.3-.1-.1h-.2-.1-.5l-.3.1-.2.1h-.1v1.1l-.1.5-.1 1.3v1l-.1.2v.2l-.1.4v.5h-.1l-.1.5V18.5l-.1.1V18.8l-.1.2-.1.3-.1.2-.2.4v.2l-.1.1v.1c-.1 0 0 .2-.2.2l-.1.3-.2.4s-.1 0 0 .1c-.2 0-.2.1-.3.2v.2l-.2.1-.1.1v.1l-.1.1-.2.2-.1.2H21c0 .2-.1.2-.2.3l-.2.2-.1.1c-.2.2-.3.4-.6.5 0 .2-.2.3-.3.4-.2.1-.3.3-.5.3l-.1.2-.3.2c-.1 0-.2 0-.3.2l-.3.1-.3.2h-.2-.2V25l-.3-.1-.3-.3h-.2c0-.2-.2-.3-.3-.4l-.2-.2-.2-.1-.2-.2h-.1v-.1l-.3-.3-.2-.1-.2-.2-.1-.2-.3-.3-.2-.2-.2-.3-.1-.1-.1-.2h-.1l-.1-.3-.2-.2-.2-.3-.5-.8-.1-.3-.1-.2-.1-.2-.1-.2-.1-.3-.1-.2-.2-.5-.1-.4-.1-.2v-.3l-.2-.6v-.3-.2-.1-.4s-.1-.1 0-.2v-.3l-.1-.1V15 15v-.3-.1-.3-.3-.2-.3-.3c0-.2.1-.3 0-.4 0 0 .1-.1 0-.2h.1v-.3h-.1-.1l-.2-.2-.2-.1h-1v.7l-.1.6v.3h-.1v.7l-.1.1v.5l.1.1h-.1-.1v.1l-.2.2v-.4-.2l.2-.6v-.2-.2-.2-.2l.1-.5.1-.6v-.3h-.1-.2l-.1.5v.2h-.1v.5l-.1.2-.1.2-.1.1h-.2v.4l-.1-.2c-.2.1-.2.2-.2.4v.1l.2.2v.5H8.4l-.3-.1-.1-.1-.3-.1h-.2l.1.2h.5l.3.2.4.5.2.5.2.5v1.1H9v-.2-.7-.3l-.2-.4c0-.3-.2-.3-.2-.5v-.1h-.2c0-.1 0-.2-.2-.2l-.2-.1v.1h.1l.2.2.2.3.2.4v1.2l-.1.1-.1.3h.1l.1-.2v.8l-.1.2v.2l-.1.1v.1l-.1.2v.5l-.1.2-.1.2v.2h-.1v.1H8v-.1h-.2v-.2H8l.2-.2v-.2-.1-.1l-.2-.1h-.3v.3l.1.4v.4h-.2v-.1-.4-.1-.1h-.1v-.1l-.1-.2h-.1l-.3.1-.1.5c-.1.1 0 .4-.2.5v-.4l.1-.4v-.1-.2l.1-.1-.2.4V20.2l-.1.2v.2l-.2.3v.7l-.1.3v.7c-.1 0 0 .2-.2.2v-.3-.4-.1s.1-.2 0-.2l.2-.4V21v-.3-.2-.2l.1-.3V20l.1-.2v-.2-.2-.1-.1h-.1V19.5l-.1.3V20.2l-.1.2V20.9H6v.3l-.1.4v.8l-.1.3v.2l-.1.3v.2l-.1.2v.2h-.1v.1l-.2.2-.2.2h-.2l-.2.2h-.3-.1c-.1.1 0 0-.1 0l-.2.1h-.8l-.6.1h-.8c-.1.1-.2 0-.2 0H1v.2H.7 2.4v.1H1 .9.6.3v-.1-.2l.2-.1H1l.5-.1h.2c.1 0 .2-.1.4 0h.7l.1-.1H3l1-.1H4l.1-.1.5-.2.2-.2.2-.1v-.1l.1-.2v-.2-.2s.1 0 0 0c0-.1.2-.2.1-.3v-.1-.1-.2-.2-.1-.2s.1-.1 0-.2h.1v-.3-.6-.1-.6-.1c0-.1.1-.2 0-.2l.1-.2v-.2-.3-.2-.2-.3-.2c-.1 0 0-.1 0-.2v-.1-.7-.4-.2-.2c0-.4.1-.8.3-1.1V15v-.2l.3-.6v-.4l.1-.2v-.1l.1-.1v-.2c.1-.2.3-.3.3-.5l.1-.3.1-.4.1-.4.2-.4v-.1l.1-.2v-.2-.3-.2-.1-.1-.2-.1-.2-.3l.1-.3v-.1-.2l.1-.6v-.7l-.1-.5v-.5l-.1-.3v-.3-.1-.2L7 5 7 4.8v-.1-.1V4v-.3h.3l.2.2.3.3v.2l.1.2.2-.1.2-.3.1-.2V4h.1l.1-.3h.2l.1.5V4.5l-.1.4-.1.2h-.3l.3.1.3.1h.1l.2.4V6H9l.2.4-.3-.1-.1-.2v.5l.1.1.1.1H9h-.2L9 7v.7l.2.2V8l.2.1v.2h.1l.2.2v.3a.4.4 0 0 1 0 .1s0-.2-.2-.3l-.2-.3-.2-.2V8L9 7.9v-.2l-.1-.2-.1-.3-.1.1V8.2h.1V9.3L8.7 9v-.2c-.2 0-.2-.1-.3-.2v.5l.2.2V9.7l.1.2V10h-.1c0 .2 0 .3-.2.4l-.1.2H8v.2c0 .2 0 .3.2.4l.3.2H9.3l.1.1h.2l.3.1h-.3v.1h-.2l-.1-.1H9 9h-.1-.1-.2-.1-.1-.2H8l-.2-.2-.1.3m17.7-.7v-.3-.3c-.2.1-.2.3-.3.5l.3.1m-.3-1.6V9l-.1-.1-.1-.1-.2-.3h-.2l.1.1.3.4v.8l-.1.2.1-.1.1-.3v-.1l.1-.2m-.8 1.1l.1-.1-.1-.1H24c-.1-.1-.1 0-.1 0v.2h.3m0 .3v-.1h-.1l-.1-.1H24v.7l.1-.1v-.2h.1v-.2m-.1 1.3c.1 0 0-.2 0-.1h-.2v.2h.2m0-.4H24l-.3-.1.2.1h.2m-.2.6s.1 0 0 0h-.1l-.1.2.2-.2m-.4-2.4v-.1c-.2 0 0 0 0 .1zm-1 9h-.2v-.1l-.3-.1H22h-.2l-.3.1h-.2l-.2.1h-.1-.2l-.3.1h-.7-.1v.1l.5.1H20.7l.6-.2.5-.2h.4l.1.1h.1m0 1.8v-.3l-.3-.1c-.3-.2-.7-.2-1-.3h-.2-.7l-.2.1h-.1c-.1 0-.3.1-.4 0h-.2-.3-.2-.2c0-.1-.1 0-.2 0l-.3-.2H18h-.2-.1-.5l-.2.1h-.2l-.2.1h-.2-.8-.5-.2l-.2-.1h-.1-.1-.1c-.1 0-.3-.1-.4 0 0-.1-.1 0-.2 0h-.3c-.1 0-.3 0-.3.2v.1l.2.3s.2.1.2.3c.1 0 .1.2.3.2l.3-.1h.7l.3.1.3.1H16.3l.4-.1h.3l.4-.1H18.7l.1.1H19l.3.1H20l.4-.1h1.3c0 .2.2.2.3.2l.3-.3.1-.3m0-3.3h-.1-.1v.2s0-.2.2-.2m-.2.4H22v.2h-.1v.1l.1-.1.1-.2m-.2-.3v-.2l-.2.4c.1 0 0-.2.2-.2m-.3 0v-.3h-.1v.2m-.3.5l-.1.1v.2l.1-.2m-.1-.8V17H21v.2h.1m-.2 1.5v-.1s-.1-.2-.2-.1h-.2-.1c0 .2.1.1.2.1l.1.3h.1l.1-.2m0-.9h-.1-.1c0 .3.2.3.2 0m-.1-.6V17l-.1.2v.1m0 1v-.1l-.2-.1h-.6-.2-.2l-.3.2h-.5s-.3 0-.2.1h.7l.4.1-.1-.2.2.1h.3s-.2 0-.2-.2h.2l.4.1h.2m-.3-.9c.2 0 .2-.4 0-.3v.3m-.2-.6s0-.2-.2-.1v.3c.1 0 .2 0 .2-.2m-.1.5l-.1-.2h-.1v.2h.2m-.1-1s.2-.2 0-.3l-.1.1V16.4m-.3.6c.1.1.2 0 .2-.2 0 0-.3-.2-.3 0l.1.2m0 .5v-.3h-.1v.3h.1m-.4-.3c.2 0 .2-.3 0-.3V17.2m0 .3v-.1c-.1-.1-.2 0-.2 0h.1zm-.4-.2l.1-.1c0-.1 0-.2-.2-.2v.1h.1v.2m0 1.7v-.1h-.2l-.1-.1h-.1-.1l-.3-.1h-.7-.3l-.2.1H15.8h-.1-.4-.2l-.3-.1h-.5c-.1 0 0 0 0 0H14h.3l.3.1h.2l.3.1h.1l.1.1h1.3l.5-.1h1.5m-.3-1.5v-.2h-.1v.2m0 .4s0-.3-.1-.2v.2m-.2-.2v-.2c-.2 0-.1.2 0 .2m0 .3l-.1-.2-.2-.1v.2h.1v.2l.1-.1m-2.1-6.5l-.3-.1v.3h.2v-.2m-.8.6c.1 0 .1-.1 0-.2v.2m-.9 6.7l-.1-.1h-.3l-.4.2h.5l.3-.1m-1.4-9v-.1h-.3c0 .1.2 0 .2.2l.1-.1m-.4 2H12c-.2 0 0 .2 0 0m-.3-1.5v-.3h-.2v.1l-.3.1v.3h.1l.3-.2m0 .4v-.2l-.3.2.2.4c.2 0 .2-.2.2-.3M11 8.4c0-.1 0 0 0 0h-.2l-.1.2V9h-.1V9c-.1.3-.1.6 0 .8l.2.4.1.1V10l-.1-.2-.2-.4v-.3l.1-.2v-.2h.1l.1-.3m-.1 2.7V11h-.2-.1l-.2.1.3.1h.2m-.3-.4v-.3l-.1-.1-.1-.2v.7h.2M9.1 5.4v-.1H9h-.1l.2.2v-.1zM8.7 4v-.2c-.2 0-.2.3-.2.4l-.1.2-.1.1v.2s0 .1 0 0l.1-.2v-.1h.1v-.1l.1-.1V4M8.6 6v-.1h-.1l-.1-.1H8s-.1 0 0 .1V6h.4L8 5.9H8l.2-.1h.1v.1c.1 0 0 0 0 0h.2m-.2 1l-.2-.1V7h.2m-.3.2V7l-.1-.3v.4H8m0-.5l-.2-.4.1.3m-.1 12.6h-.3l-.1-.2-.3-.1H7v.1l.1.1.2.1.1.2h.2l.2-.2m-.3-7.9l-.1-.3v.4h.1m0-5.8l-.2-.2v.5l.1-.2h.1m-.6 13v-.1h-.3.2zM26.5 24.2v.1h-.8l-.3.1H24.8h-.1c-.2 0-.2.1-.3.2l.2.2h-.1c0 .2.2.1.3.2h-.3-.1l-.1.1H24h-.8c-.2 0 0-.1-.1-.2v.1H23v-.1-.2l.1-.1.2-.1h.3l.2-.2h2.4s.2-.1.2 0M26.5 22.8v.2c0 .3-.3.3-.4.4h-.3-.3-.2l.4-.1h.2v-.1l.3-.1v-.2l.1-.6v-.1-.6-.2l-.1-.5v-.1h.1v.6l.1.2v1.2"/><path fill="#fff" d="M26.3 15.4l-.2-.2-.2.1-.1.3-.2.5V17v.6h-.2v-.2-.1-.1-.3-.4-.1-.3l.2-.5.1-.1.1-.3v-.3-.3-.1-.4-.1h-.1v-.1-.5-.2-.1-.1h.1V13.7l.1.2v.4l.1.2v.3l.2.2.1.5"/><path fill="#fff" d="M26.3 20.7h-.1v-.2l-.1-.3v-.5l-.1-.5-.1-.2-.1-.3-.2-.3v-.2-.1l-.1-.3v-.2l.1.1v.3l.2.2v.2l.1.2.1.2v.2c.1 0 0 0 0 0l.1.1v.7l.1.2v.7M25.3 23.4H25c0 .1 0 0-.1 0l-.2.1H24c0 .1-.1.2-.2.1h-.3-.1V24c0 .1 0 .1.1 0 0 .1.1 0 .2 0H25v.1h-.2-.3l-.3.1h-1c-.2 0-.2.1-.4 0h-.3-.1l.1-.2v-.1h.2c.1-.2.2-.2.4-.3h1l1-.1H25.3M24.6 5.2v.1h-.2v.3c0 .3-.1.4-.3.6H24V7l-.1-.2v-.1s-.1-.2 0-.2h-.1V7l-.2-.4v-.3.4l.1.3v.2s-.1-.1 0-.2h-.1v-.5-.2h-.1v.4h-.1v-.4-.1c-.2 0-.2.3-.2.5v-.2-.3l-.2-.1V6l-.1-.2v-.2-.2l-.1-.2-.1-.1h-.2l.1-.2h-.1v-.2l.2-.1h.2l.2.1.2.2.2.2v.1h.4l.1.2H24.3c0-.1 0-.2.2-.1m-.2.1l-.2.2H24l-.1.1v-.3h-.2l-.1.2-.1-.2v-.1l-.2-.2V5.4H23c-.1 0 0 .1 0 .2v.5l.1.1h.8l.2-.3v-.1-.4"/><path fill="#fff" d="M22.3 1.8v-.2-.1-.1l.1-.2.1-.2.3-.1.3-.2.2.1-.1.2-.3.2-.2.4h-.1v.2l-.1.3-.2.5v.3l.2-.1v-.1l.1-.1v-.2-.2l.4-.4h.2v-.1h.2l.2-.1h.2v.1l-.2.1-.3.3h-.1v.2l-.3.1-.1.4-.1.3-.2.2v.5s-.1.1 0 .1l.1-.2.2-.4.2-.2h.7l.1.4.1.1h.1l.2-.1h.1v.1l-.1.2v.1l-.1.3v.2h-.2v.2l.1.1v.1l-.2-.2v-.1c-.1 0 0 .1 0 .2v.1h-.1v-.4h-.1v.4l.2.2h-.2v-.1h-.2v-.4-.1l-.1.1V4.4l-.2-.1V4v-.2l-.3.1v.2l-.2.3c-.1 0-.2.1-.2.3v.1l-.1.2h.2v.1h-.2v.4l-.3.2-.2.2V6l-.1.1a3 3 0 0 0-.4.6L21 7l-.1.2-.2.3s-.1 0 0 .1l.4.1V8l.1.2v.2l-.2.2h-1v.1H20h-.1-.2-.5-.1-.2-.1c-.2 0-.3-.1-.4 0v-.1h-1.1v-.1h.4V8 8l-.2-.2c-.1-.2-.2-.3-.3-.2H17h-.3v-.2H19c.1 0 .1.1.2 0H19.5c.2.1.3 0 .4 0h.4v-.2L20 7H20 19.7v-.1H20.3v-.3H19.7v-.2h-.2l-.1-.3h-.5s0 .1 0 0h-.1l.3-.1H19.5l.1.1.1.2h.1v.1h.2v.1h.4l.2-.3.2-.3v-.1c.1 0 .1-.2 0-.2h.2v.2l-.2.3-.2.5v.2l-.1.2v.2h.2l.3-.4v-.1l.1-.2c.1-.2.3-.2.3-.4l.1-.2.2-.3.2-.5.2-.5v-.2l.1-.2v-.3-.5-.3V3l-.1-.2-.1-.3v-.2l-.1-.1-.2-.2c0-.2-.2-.2-.2-.3h-.2c0-.2-.2-.2-.4-.2l-.2-.1h-.2c0-.2-.2-.1-.3-.2h-.3-.1V.9h.2V.8.6.3.1l.2.1v.3c0 .1 0 .4.2.4h.2l-.2-.5.1-.3h.2v.7l.1.1V1h.2V.9.4 0h.3l-.1.4V1l.1.3h.2V.8.6l.1-.2h.4v.1h-.1l-.1.2v.1l-.2.1v.2l.2.2v.4h.2v-.2-.2V1 .8l.1-.1.3-.2.1.1-.1.3V1l-.2.2v1l.2-.1v-.3m1.8 1.9h-.2V4l-.1-.2v-.2l-.1-.1-.2.3h-.1l-.1-.2-.1.1V4H23v.2h.2c0 .1.1 0 .2 0h.2v.1h.2v-.1l.2-.5m-.6 1v-.4.4m-.4-1.5l-.2.2v.2l.2-.2v-.1m-2.5 5c0-.1 0-.3-.2-.4 0-.1 0-.2-.2-.2l.2.6h.2m-.6 0l-.2-.4c0-.2-.2-.3-.3-.3h-.7-.1l.1.4h.1v.2l.2.2h.9M22.3 23.7l-.1.1H22l-.2.1h-.2l-.2.2-.2.1-.2.2h-.2l-.1.1h-.1-.1l-.1.1h-.2l-.2.2h-.2l-.2.1-.2.1H19 19v.1h-.2-.2-.2v.1h-.1l.5-.3.3-.2.3-.2.5-.4h.1l.3-.3.3-.1H22.3"/><path fill="#fff" d="M21.9 4.5l-.2.3v.3l-.2.1h-.2c-.2 0-.2.1-.2.2v.2h-.2v-.2l.2-.2V5l-.1-.1h.1l.2-.4-.1-.6-.2-.4-.4-.3h-.3-.1c0-.1-.2 0-.2 0h-.2-.2-.1-.2l-.2.1H19v.1h-.2l-.1.1-.2.3v-.1-.1-.2h-.2v-.1h-.2v.2h-.2v-.1V3H18.3v-.2l-.3-.2v-.2l.1-.2.1.2.2.3.1.2.1-.1.3-.1.2-.1v-.1h.5v-.1H20.5c0-.1 0 0 0 0l.3.1h.2l.2.1.2.2V3l.2.1h.1l.1.3v.2l.2.4v.5m-.1-.5v-.2h-.4V4.1h.1c.1.1.3 0 .3-.1m-.4 1.2c.2 0 .3-.2.2-.3l-.2-.1h-.1V5.2h.1m.2-1.7c0-.2-.1-.2-.2-.2-.2 0-.3.1-.3.3l.2.2.3-.1v-.2m.2 1s-.1-.2-.2-.1l-.2.1V4.7c.3 0 .4-.1.4-.3m-1-1.1c.4 0 .5-.4.3-.5H21h-.1c-.1 0-.2 0-.2.3 0 0 0 .2.2.2m-.3-.4v-.2l-.1-.1h-.2l-.1.2V3l.2.1h.2M20 3v-.3l-.1-.2c-.1 0-.2 0-.3.2v.1c0 .1.1.2.3.2h.1m-.8.2c.2 0 .3-.1.3-.3v-.2h-.3-.1v.5m-.1 0V3l-.2-.2c-.3 0-.3.4 0 .5l.2-.2m-1 0c.1 0 .2 0 .1-.1v.1m0-.5c0-.1 0-.1 0 0"/><path fill="#fff" d="M21.7 4.4l-.1.2c-.1 0-.2 0-.1-.1h.2M21.6 4c.2 0 0 .1 0 0h-.1c0-.1 0-.1 0 0h.1M21.5 5V5h-.1s-.1 0 0 0c0-.1 0-.2.1-.1M21.5 3.4v.2l-.3-.1s0-.1.1 0c.1 0 .1-.1.2 0M21 3v.2H21s-.1-.3 0-.2h.1M21 4.8V5h-.2v.6h-.1v-.1l-.1-.1-.2-.2h-.1v.5H20v-.2-.2h-.2-.2s-.1.1-.1 0v-.4-.3h-.2l-.2.3v.4l-.2-.1h-.2c-.1 0-.3 0-.3.2l-.1-.1-.3.1v.2H18l-.1-.2.1-.1V5h.1v-.1h-.3v-.1h.2v-.1h.2v-.3l.2-.4v-.2h.4l.3-.1c.1 0 .2-.2.3-.1h.2l.2-.2h.5l.4.4.2.3V4.8m-.2-.7v-.2l-.2-.2-.2-.1H20s-.1-.1-.2 0h-.5l-.5.2-.4.2h.7s0 .1 0 0l.3.1h.3c.3-.2.6-.2.9 0"/><path fill="#fff" d="M20.8 5.6l-.2.2-.1.1-.1.2h-.1l-.2.1H20h-.1l-.1-.1-.3-.3h-.3v-.1h.1l.3-.1h-.2v-.1h.3l.1.1v.2h.2v-.1l.1-.1h.2v.2h.1l.3-.2v-.1M20.5 2.8V3h-.1v-.1h.1M20 2.8l-.1.1h-.2l.1-.1h.1M19.8 15.7h-.2v.4l-.2.1-.2.1H19l-.3.1h-.2l-.2.1h-.1c-.2 0-.2.2-.4.3l-.4.4h-.1l-.2.2H17 17l-.2-.1.4-.5 1-.8c.2 0 .5-.1.6-.3 0 0 0-.1.1 0 0 0 .2 0 .2.2l.2-.1.3-.3.2.2m-.8.3l-.1.1m-.3 0l-.2.2.2-.1m-.5.2l.2-.2H18v.2m-.3.2v-.2s-.1.2 0 .2m-.3.2v-.2.1h-.1c0 .2.1.2.1 0m-.3.5h.1V17 17v.1h-.1v.1M19.7 7.2v.2h-.1l-.2-.1h.2v-.1h.1M19.7 6.9c-.1.1-.3.2-.4.1h-.2-.1-.1-.2-.1-.5-.2-.4H16.6l.1-.1h1.1l.2-.1h1.3l.4.1M19.7 8.1v.2h-.2l-.2-.2v.2L19 8V8l.2.2v-.3c.1 0 .2 0 .3.2v-.2-.1l.2.3M19.5 6.5l-.1.2H19l-.1-.2.1-.2h.2c.2 0 .3 0 .3.2"/><path fill="#fff" d="M19.4 5.5h-.3l.1.2c-.2 0-.2.1-.2.2l-.4.1h-.1-.1l-.2-.1-.1-.2h-.2v-.2h.2l.2.2.1-.3h.1c0 .2.2.3.2.3l.3-.2h.4M19.3 3s0-.1.1 0h-.2.1M19.3 9.6zM18.9 3.2h-.3.3"/><path fill="#fff" d="M13 4l-.1-.5h-.1l-.1.2V4l-.2.4v.2l-.1.2h-.1v-.1-.1l.1-.2-.1.2v-.2s-.1 0 0 0l-.1.1v-.1H12V4.6l-.1.1h-.1c-.2 0-.2 0-.1-.1l.1-.2v-.1l-.2-.2v-.2l-.1-.1-.2-.4v-.1h.3l.1.2h.1l.3-.6H12.8l.1.1.1.2.1.2v.2l.1.2h.1v-.1V3a.7.7 0 0 1-.4-.5c-.1-.4-.4-.6-.6-.9l-.2-.1v-.2s.3-.1.4 0h.1c.2 0 .2.2.3.3l.1.1v.7h.2v.1h.1l.1-.2c0-.1-.2-.3-.1-.5l-.2-.7-.2-.2h-.1c-.1-.2-.2-.3 0-.4.3 0 .4.2.5.3v.2l.1.2v.5l.2.2v-.1-.3-.2-.6l-.3-.4V.3h.3c.2.1.3.4.3.7V1.3c-.1.2 0 .2 0 .2.2-.1.1-.3.2-.4V1 .6.5l-.2-.1V.2.1h.3v.2h.1V1.3h.2V1 .6.5.3 0h.2l.1.2V1c.2 0 .3-.3.3-.5V0 0h.2v.4c0 .2-.2.3 0 .4l.3-.6h.2v.2c-.1.1-.3.3-.1.4h.2v.3h-.3-.1-.4l-.4.2h-.2l-.5.5-.3.6v.3l-.2.3v.7l.1.5v.3l.2.5.2.2v.2l.2.3.1.2V6l.8 1h.1v-.4L15 6l-.1-.2c-.1-.2-.2-.5-.4-.6h-.2-.2l-.1-.3v-.1-.1l-.2-.3c.1 0 .3.2.4.1h.1v-.2l-.1-.2.2-.2V4.5l.1.2v.1l.2.2.1.4.1.2h0v.2h.2V6l.1.3v.1l.3.1H16v-.2l.2-.1h.2c0-.1.2 0 .2 0h.8l.1-.1h.2l.1-.1.3.2H18.9c0 .1 0 .2-.1.1h-.3-.1l-.3-.1h-.1-.2-.2l-.2.1H17h-.4-.4l-.3.3h-.2-.4V7H16.6l-.1.1H16.2 15.5h-.2v.1c-.2 0-.1.2-.2.2h.2s.1.1.2 0l.1.2H16v-.1H16.7l.1.1c-.1 0-.2 0-.2.2V8l.2.3.1.1.3.1h.2c-.2.2-.3.2-.4.1h-1-.4-.2H15h-.1-.1-.1l-.1-.2-.1-.2v-.2-.3l.1-.1h.2v-.1h.1v-.1l-.1-.1V7h-.1l-.2-.3-.1-.3-.4-.6-.2-.2-.2-.1-.2-.3V5l-.1-.2h-.1v-.1-.1h.2v-.3h-.1l-.2-.2V4m3 4.3v-.1V8 8l-.1-.2-.1-.1c0-.2-.2-.1-.2 0 0 .2.2.2.2.3l.1.2s0 .1.2 0m-.7.2V8l-.4-.5h-.3l-.2.4v.2l.2.1h.2l.2.1H15.5m-1-3.4c0-.2 0-.3-.2-.4-.2 0-.2.2-.2.3 0 .1 0 .2.2.2h.1M13 3.2c0-.1 0-.4-.2-.3l.1.2.1.1m-.3.7v-.5-.3l-.2.1-.1.4-.1-.4-.2.3h-.1l-.2-.1.1.5h.1c0 .1.1 0 .2 0h.5m-.6.5v-.2.2m0 .1v-.1.1M18.8 7.1v.2h-.4v-.1c.2 0 .3-.2.4 0M18.6 1.6v.8l-.4-.2H18v.1H18c0-.1-.1 0-.2 0 0 0-.1 0 0 .1v.4h-.5l.2-.3v-.2c.1 0 .1 0 0 0h-.1-.1l-.1-.2v-.3-.2l.4.2v-.3l-.2-.2h1l-.2.4h.4m-.2.4v-.3l-.3.1V2c0 .1.2.2.3.1m-.3-.5v-.2H18h-.1-.3l.2.3h.2l.1-.1m0 .4s0-.2-.2-.2h-.1V2c0 .2 0 .2.2.1V2m-.3.6l-.1.1h.1m-.1-.6V2c-.1 0-.2-.1-.2 0-.1 0-.1.1 0 .2h.2"/><path fill="#fff" d="M18.3 3.4v.2l-.1.4-.1.3v.4H18c0-.1 0-.2-.2-.2h-.2v-.1-.5l-.1-.1v-.2h.2v-.1H18v.2c.2 0 .2-.1.2-.2v-.1M18 4c.1 0 0-.1 0-.2h-.1-.1V4l.2.1m0-.3v-.2h-.1l-.1.2h.2m-.2.6c.1 0 .2 0 .3-.2h-.3v.2M18.2 6.3s.1.1 0 .2c0 0 0 .1 0 0v.1h-.4-.4c-.1-.1 0-.3.2-.3 0 0 .1.1.2 0h.1c.1.1 0 0 .2 0h.1"/><path fill="#fff" d="M18 3h-.2v.5l-.2-.1c0-.1-.2-.2-.2 0h.1v.2l-.2-.3h-.2v.3h.1l.1.3V4l-.8-.4h-.1l-.2-.1h-.5-.1v-.1h.5l.5.1v.1l.5.2v-.3H17c0-.2-.2-.2-.3-.3l-.3-.1H16l-.4-.1h-.4l-.1.1-.2.1h-.1l-.2.2v.1l-.2.4h-.1v-.2l-.2-.1c-.2 0-.3 0-.3.2l.2.2s0 .1 0 0l-.2.3V4v-.2s-.1-.1 0-.2v-.2h.1v-.1c0-.2.2-.3.3-.4h.1l.1-.3.2-.2h.1l.3-.1h.5l.3-.1h.1l.2.1v.1h.5l.1.2H17.1l.2.2h.1V3h.5m-.2.2v-.1h-.1v.1m-.5-.1v-.2h-.2c0-.1-.1 0-.2 0l.1.3.3-.1m-.6-.1c.2 0 .2-.3 0-.3h-.3c0 .2 0 .2.2.3h.1m-.4-.3c0-.2 0-.3-.2-.3h-.1v.1l-.1.2.2.2h.2v-.1-.1m-.6.2v-.3l-.1-.2h-.1c-.2 0-.2.3-.2.4l.1.1h.3m-.4 0l-.1-.1-.2-.1h-.1l-.2.2.1.2h.3l.2-.2m-.5.6V3h-.3-.1v.4H14.6M18 7.3h-.2-.1-.2v-.1h.4"/><path fill="#fff" d="M17.8 4.8h-.1-.1V5.2l.2.2V5.6c-.2.1-.2.2-.2.3l-.3.1H17h-.2l-.2-.2v-.2h-.4.2l.2-.2h.2l.2.2v.1l.2-.3v-.2L17 5h-.3-.1l-.1.2v-.4l-.3-.3h-.1v.1l-.1.1v.5h-.2c-.2 0-.3 0-.3.2v.1l-.2-.3-.2.3v.1H15v-.3V5h-.4.2v-.3l-.1-.1v-.1-.1V4 4l.2-.4.2-.1.3-.1-.2.1a1 1 0 0 0-.3.3v.1H15.9l.2.2h.1l.6-.1h.5v.2s.1.2 0 .2v.4h.3v-.2.2h.2m-.1.8v-.2l-.3-.2v.4H17.7M17.4 7.9v.3l-.3-.1v.1H17h-.2V8l-.1-.1.2.2V8h.4s-.1 0 0-.2M17 3v.1h-.2V3h.2M16.9 7.1v.2h-.1-.1-.1v-.1h.3M17 25h-.2-.2-.1l-.1-.1h-.2l-.1-.1h-.3c0-.2-.3-.2-.4-.3h-.2l-.3-.2h-.2-.1c0-.1-.1-.2-.3-.2h-.2l-.2-.2-.2-.1h-.3v-.2H15.3l.1.2.3.2.2.2.6.4v.1l.4.2.1.1M16.8 6.5l-.2.2h-.3s-.2 0-.1-.2h.2l.1-.2h.2v.1"/><path fill="#fff" d="M16.5 5.7v.1h-.1-.2L16 6l-.1.2h-.6l-.2-.3H15h.1v-.2l.2.1.3.1v-.2l.2.2c0-.1 0-.2.2-.3l.2.1v.2H16.5M16.5 2.8v.1h-.2v-.1h.2M16 7.2v.1l-.4-.1h.2L16 7v.1M16 2.7c0 .1-.1.2-.2 0h.2M15.5 2.7l-.1.2h-.1v-.2h.1M15.2 8s.1.2 0 .2L15 8l-.1.2c-.2 0-.2-.2-.3-.2v-.1h.2v0H15.2l.1.2M14.8 3s0-.2.2-.1c0 .1-.1.2-.3.1M14.5 3.3l-.1.2s-.1-.1 0-.2M14.4 4.9l-.1.1c-.1 0-.2 0 0-.1M14.2 4.3v.1H14c-.2 0 0-.1 0 0l.1-.1M14.2 3.8c0-.1.1 0 0 .1h-.1v-.1M13.5 23.8h-.1v.2h-.2-.2-.1-.1-.4-.1l-.2-.1h-.5-.1v-.2h.4c.2 0 .2-.1.1-.2H12l-.4-.1h-.2l-.5-.1h-.2V23h.3l.2.1H12.3l.1.1h.1l.4.1v.1h.3c0 .1 0 0 .1 0h.1v.2h.1M13.3 4.6H13l.1.2H13l-.1.2V5.7l-.1.1V6.1h-.1l-.2.1v.5h-.1V7h-.2.1v-.1l.2-.3v-.2h-.1V6.6l-.2.1V7l-.2.1V7l.2-.2v-.2-.2-.1.4l-.1.1-.1.2h-.1v-.1l.1-.1.1-.2v-.3.2H12V6.9h-.1v-.1-.2-.1.2l-.2.1v-.1l.1-.2-.1-.2c-.2-.2-.1-.8-.4-1h.4v-.4H12l.1-.3v.6l.1-.1c0-.2.2-.2.2-.3h.1l.1-.1c.1-.2.3-.2.5-.2v.1h.1l.1.1M12.7 6c0-.2.1-.5 0-.8V5l-.1.2-.1.1v-.1-.1-.2l-.2.2-.1.2s-.1 0 0 0C12 5.2 12 5 12 5h-.1v.4l-.2-.1h-.2l.1.1v.1c.1.2 0 .5.3.5l.2-.1H12.7M12.4 24.8h-.1v.1H12v.1l-.3-.1h-.4v-.1h.2l-.5-.1h-.2v-.1c.1 0 0 0 0-.1l-.1-.2h-.1-.1l-.1-.1a4 4 0 0 1-.5 0h-.3l-.5-.1H9 8.7l-.2-.1h-.2v-.1H9l.3.1h1.2l.4.1h.7l.2.1.4.3.2.2m-.9-.2h-.1.1"/><path fill="#fff" d="M11.4 23.7v.1H11h-.1-.7-.2-.2-.2c-.1 0-.3-.1-.4 0l-.6-.1h-.2-.1l.1.2H8c-.1.1-.1 0-.2 0v-.1-.2l.1-.2h.1l.2-.2V23 23v-.3-.2-.2-.6l.1-.2.1-.5V21v-.1-.1-.2-.1-.1l.1-.2v-.2-.3l.1-.2v-.1-.2-.2l.1-.2.1-.4.2-.5v-.1h.1v.4l-.1.4v.2l-.1.4v.2l-.1.5v.3l-.1.5V23.3H9.8v.1h.2l-.2.1h-.2-.3-.2H9h.1l.5.1H11l.3.1M11.3 24.8s0 .1 0 0h-.4-.3-.1-.3-.2-.8l-.3-.1h-.2-.2-.1-.7v-.1H8.4v-.1h2.6v.2h.3l.1.1"/><path fill="#fff" d="M9.2 22.6v.2l.3.2h.8l.3.1v.1h-.3-.2-.5l-.3-.2h-.1l-.1-.2v-.3-.4-.2l.1-.4v-.2-.2-.1-.2s.1 0 0-.1l.1-.2v-.1-.2-.4-.1-.2l.1-.1v-.1-.2-.1-.2l.1-.1h.1V19.7h-.1v1c0 .1-.1.2 0 .2-.1 0-.1.2 0 .2l-.1.2v.4l-.1.4v.6M10.3 16.6v.2l-.1.3v.4l-.1.2v.1l-.2.4v.1l-.2.2-.1.2v-.1c0-.2 0-.4.2-.6l.2-.6v-.2-.1-.2-.4-.2-.3-.2-.3l-.1-.1-.1-.2V15l.1-.1.2.4v.4l.1.1v.7M9.8 6.4v.4h-.1l-.2.1h-.1-.1l-.1.1h-.1v-.1-.1l.1-.2.2-.1v-.1c.2-.1 0-.2 0-.3l-.2-.2h.1l.2.2.2.2.1.1m-.2.3c0-.1-.1-.1-.2 0h.2M8.4 5.8zM7.4 21.3v-.1-.2l.1-.3v-.1-.1h.1V21.1l.1-.2v-.4h.1v-.2H8v.2H8.2c0 .1-.1.2 0 .2L8 21l-.1.2-.1.8v.2l-.1.6v.4s-.1.3 0 .4v.5c.1.1 0 .3-.1.3v-.5-.3-.4h-.1l-.2.7v-.3-.3-.3l.1-.3v-.2-.2.3l-.1.3v.5H7v-.3l.1-.5v-.2l.1-.3.1-.7v-.1M7.8 24.6v.1h-.1-.3-.2H7h-.2-.4H6h-.8l-.4.2h-.2-.1l-.3.1H4 2.5s.2-.1.2 0l.2-.1H4.3l.5-.1H5v-.1c.3 0 .4-.1.5-.2l.1-.1.1-.2.2.1h-.1v.1H6.7c.2 0 .3-.1.3-.2v.2h.1c0 .1 0 .2.2.2h.5"/><path fill="#fff" d="M7.2 23.4V24l-.1.2H7V24h-.2-.1-.5H6l-.1.3h-.2l.4-1 .1-.3h.1V23.3l-.1.4h.9v-.3z"/><path fill="#fff" d="M6.6 20.6v1l-.2.8v.6h-.2v-.3-.2-.2s.1-.1 0-.1l.1-.3v-.5h.1V21l.1-.5z"/></svg>