<svg xmlns="http://www.w3.org/2000/svg" width="178.87" height="100" viewBox="0 0 47.33 26.46"><defs><clipPath id="c"><path d="M288.5 123.66h263.26v120.3H288.49z"/></clipPath><clipPath id="b"><path d="M288.5 123.66h263.26v120.3H288.49z"/></clipPath><clipPath id="a"><path d="M288.5 123.66h263.26v120.3H288.49z"/></clipPath></defs><path fill="#fff" d="M24.07 0C33.63.15 42 2.08 47.33 4.94 41.63 2.4 33.35.77 24 .64 14.68.51 6.13 1.91 0 4.28 5.8 1.57 14.5-.12 24.07 0M16.92 14.9h1.37v-4.1h1.51c.75 0 1.02.41 1.02 1.08h.35V9.27h-.35c-.07.4-.14.96-1.02.96H18.3V7.74c0-.6.16-.64.79-.64h.97c.81 0 1.34.26 1.34 1.26h.36L21.7 6.5h-5.97v.27c1.14.19 1.18.19 1.18 1.42zM26.46 14.9h4.98l.03-1.8h-.34c-.08.97-.42 1.22-1.13 1.22h-1.38c-.63 0-.79-.03-.79-.72v-2.8h1.51c.75 0 1.02.41 1.02 1.08h.35V9.27h-.35c-.07.4-.16.96-1.02.96h-1.51V7.74c0-.6.16-.64.79-.64h.97c.82 0 1.35.26 1.35 1.26h.34l-.03-1.85h-5.98v.27c1.15.19 1.19.19 1.19 1.42zM40.45 6.6c-.32-.07-1.13-.23-1.99-.23-1.76 0-2.8.79-2.8 2.16 0 2.63 4.05 2.44 4.05 4.46 0 1.14-.78 1.46-1.56 1.46-1 0-2-.52-2.38-.75v1.01c.26.07 1.22.33 2.18.33 1.72 0 3.13-.67 3.13-2.46 0-2.67-4.05-2.5-4.05-4.41 0-.82.53-1.21 1.2-1.21.97 0 1.89.4 2.22.56z"/><path fill="#fff" d="M24.42 1.43c8.9.12 16.37 2.4 21.32 5.07A55.08 55.08 0 0 0 24.37 2C15.69 1.9 7.23 3.43 1.54 5.64c5.4-2.52 13.99-4.34 22.88-4.21M7.46 18.84h.88c.23 0 .4.02.5.07.12.05.23.14.32.26.1.12.18.27.23.46.05.19.08.42.08.7 0 .26-.03.48-.09.67a1.3 1.3 0 0 1-.21.44c-.1.11-.2.2-.32.25a1.2 1.2 0 0 1-.48.08h-.91zm.48.5v1.94h.36c.16 0 .27-.02.35-.05a.43.43 0 0 0 .17-.13.8.8 0 0 0 .1-.28c.04-.13.05-.3.05-.5 0-.23-.02-.4-.04-.52a.7.7 0 0 0-.14-.3.45.45 0 0 0-.24-.14c-.06-.02-.2-.02-.39-.02zM10.93 21.1l.46.1a.9.9 0 0 1-.28.47.72.72 0 0 1-.48.15.72.72 0 0 1-.6-.26 1.3 1.3 0 0 1-.24-.84c0-.35.08-.64.25-.85a.67.67 0 0 1 .55-.27c.25 0 .44.09.58.27.17.21.25.52.25.94v.06h-1.16c0 .17.04.3.11.4.08.09.16.13.27.13.15 0 .25-.1.3-.3m.02-.57c0-.17-.04-.3-.1-.38-.07-.08-.15-.12-.24-.12a.3.3 0 0 0-.25.13.58.58 0 0 0-.1.37zM11.82 19.65h.43v.3c.05-.1.13-.2.23-.26s.2-.1.3-.1c.2 0 .38.1.52.3.15.18.22.45.22.8 0 .37-.07.65-.22.84-.14.2-.31.3-.51.3a.51.51 0 0 1-.26-.08.88.88 0 0 1-.25-.24v1.07h-.46zm.45 1.02c0 .24.04.42.12.53.08.12.17.17.28.17.1 0 .2-.05.27-.15.07-.1.1-.28.1-.52 0-.22-.03-.39-.1-.5-.08-.1-.17-.16-.28-.16-.1 0-.2.05-.27.16a.82.82 0 0 0-.12.47M14.27 20.3l-.42-.1a.81.81 0 0 1 .25-.46c.12-.1.29-.14.5-.14.2 0 .35.02.45.08.1.05.18.13.22.22.05.1.07.27.07.52v.65c0 .19 0 .32.02.41.01.1.04.19.08.3h-.46l-.06-.24a.83.83 0 0 1-.25.21.6.6 0 0 1-.29.07.54.54 0 0 1-.41-.17.64.64 0 0 1-.17-.46c0-.12.03-.22.07-.31.04-.09.1-.16.19-.21.08-.06.2-.1.38-.15.21-.05.36-.1.44-.14 0-.11 0-.19-.02-.23a.2.2 0 0 0-.1-.09.4.4 0 0 0-.18-.03.3.3 0 0 0-.2.05c-.04.04-.08.11-.11.21m.61.46c-.05.03-.14.05-.27.09a.65.65 0 0 0-.28.12.25.25 0 0 0-.06.18c0 .08.02.15.07.2.05.06.1.08.18.08.07 0 .13-.02.2-.06.06-.05.1-.1.13-.16a1 1 0 0 0 .03-.34zM16.28 21.77h-.47v-2.12h.43v.3a.93.93 0 0 1 .2-.28.31.31 0 0 1 .2-.07c.1 0 .2.03.3.1l-.14.5a.36.36 0 0 0-.22-.1.24.24 0 0 0-.17.07c-.04.05-.08.14-.1.26-.02.12-.03.35-.03.68zM17.98 19.65v.44h-.32v.86c0 .19 0 .3.02.33.02.05.06.08.11.08a.5.5 0 0 0 .19-.06l.04.44a.76.76 0 0 1-.36.08.44.44 0 0 1-.29-.08.41.41 0 0 1-.14-.25 2.48 2.48 0 0 1-.03-.47v-.93H17v-.44h.21v-.43l.46-.32v.75zM18.3 19.65h.43v.29c.08-.12.16-.2.25-.26a.54.54 0 0 1 .59 0c.08.06.15.14.2.26.07-.12.16-.2.25-.26a.55.55 0 0 1 .6 0c.07.06.14.14.18.25.05.1.07.26.07.48v1.36h-.46v-1.21c0-.22-.02-.36-.06-.43-.04-.07-.1-.1-.19-.1-.1 0-.18.05-.24.14-.07.1-.1.3-.1.58v1.02h-.46v-1.16c0-.24-.01-.38-.04-.45-.03-.09-.1-.13-.2-.13a.3.3 0 0 0-.19.06.4.4 0 0 0-.12.2 1.8 1.8 0 0 0-.04.45v1.03h-.46zM22.38 21.1l.46.1a.91.91 0 0 1-.29.47.72.72 0 0 1-.47.15.72.72 0 0 1-.6-.26c-.16-.2-.24-.48-.24-.84 0-.35.08-.64.25-.85a.67.67 0 0 1 .55-.27c.24 0 .44.09.58.27.16.21.25.52.25.94v.06H21.7c0 .17.04.3.11.4.07.09.16.13.26.13.15 0 .25-.1.3-.3m.03-.57c0-.17-.04-.3-.1-.38a.3.3 0 0 0-.25-.12.3.3 0 0 0-.24.13.58.58 0 0 0-.1.37zM24.86 21.77h-.46V20.7c0-.22 0-.37-.02-.44a.3.3 0 0 0-.1-.16.24.24 0 0 0-.16-.06.32.32 0 0 0-.21.07.4.4 0 0 0-.13.2c-.03.1-.04.26-.04.5v.97h-.46v-2.12h.42v.3a.85.85 0 0 1 .26-.26.6.6 0 0 1 .32-.1c.13 0 .25.04.34.11.1.07.16.16.19.27.04.11.05.27.05.48zM26.17 19.65v.44h-.31v.86l.01.33c.02.05.06.08.12.08a.5.5 0 0 0 .18-.06l.04.44a.77.77 0 0 1-.36.08.44.44 0 0 1-.29-.08.4.4 0 0 1-.14-.25 2.36 2.36 0 0 1-.03-.47v-.93h-.2v-.44h.2v-.43l.47-.32v.75zM27.4 20.68c0-.2.04-.4.12-.57.09-.17.2-.3.33-.38a.81.81 0 0 1 .45-.13c.28 0 .5.1.66.33.16.22.24.47.24.77 0 .22-.04.41-.13.6-.08.17-.19.3-.32.39a.79.79 0 0 1-.45.13.82.82 0 0 1-.64-.3c-.17-.2-.26-.47-.26-.84m.47.03c0 .21.04.38.13.49.08.1.18.16.3.16s.22-.05.3-.16a.82.82 0 0 0 .13-.5.79.79 0 0 0-.13-.48c-.08-.11-.18-.16-.3-.16s-.22.05-.3.16a.8.8 0 0 0-.13.49M29.4 19.65h.26v-.16c0-.2.01-.34.05-.42.04-.09.1-.16.18-.2a.58.58 0 0 1 .3-.08c.13 0 .26.02.39.07l-.06.39a.79.79 0 0 0-.22-.03c-.06 0-.1.02-.14.06-.03.03-.04.1-.04.22v.15h.34v.44h-.34v1.68h-.46V20.1h-.26zM31.74 21.77v-2.93h1.65v.5h-1.16v.69h1v.5h-1v1.24zM33.83 19.36h.46v-.52h-.46zm0 2.41h.46v-2.12h-.46z"/><g clip-path="url(#a)" transform="matrix(1.40883 0 0 -1.40883 -715.78 330.36)"><path fill="#fff" d="M533.09 219.04h-.33v1.5h.3v-.2l.14.2c.05.03.1.04.15.04.07 0 .14-.02.21-.07l-.1-.35a.25.25 0 0 1-.15.07.17.17 0 0 1-.12-.05c-.04-.04-.06-.1-.08-.19a3.65 3.65 0 0 1-.02-.48zM534.45 219.52l.33-.07a.64.64 0 0 0-.2-.33.52.52 0 0 0-.34-.11.52.52 0 0 0-.43.18.91.91 0 0 0-.17.6c0 .25.06.45.17.6.1.13.23.2.4.2a.5.5 0 0 0 .4-.2c.13-.15.18-.37.18-.66v-.05h-.82c0-.12.03-.21.08-.28.05-.06.12-.1.19-.1.1 0 .18.08.21.22m.02.4c0 .12-.03.21-.08.27a.21.21 0 0 1-.17.09.21.21 0 0 1-.17-.1.4.4 0 0 1-.07-.26zM537.3 219.3l-.2-.31c-.1.05-.2.13-.29.24a.64.64 0 0 0-.22-.17.66.66 0 0 0-.27-.06c-.2 0-.36.07-.46.2a.66.66 0 0 0-.15.41c0 .27.13.48.4.64a.82.82 0 0 0-.18.46c0 .13.04.24.13.32.09.09.2.13.34.13s.26-.05.34-.13c.1-.1.14-.2.14-.34a.5.5 0 0 0-.07-.25.93.93 0 0 0-.24-.25l.23-.38c.03.05.05.13.07.23l.3-.08c-.05-.2-.1-.35-.15-.43a1.34 1.34 0 0 1 .27-.24m-1.02.7a.49.49 0 0 1-.16-.16.4.4 0 0 1-.06-.2.3.3 0 0 1 .07-.22c.05-.05.1-.08.18-.08.1 0 .2.06.3.16zm.13.44l.09.08c.06.06.1.12.1.18s-.02.1-.05.14a.17.17 0 0 1-.13.05.17.17 0 0 1-.12-.05.15.15 0 0 1-.04-.1c0-.06.02-.12.07-.19z"/></g><path fill="#fff" d="M7.46 25.6v-2.94h1.78v.5h-1.3v.65h1.21v.5h-1.2v.79h1.34v.5z"/><g clip-path="url(#b)" transform="matrix(1.40883 0 0 -1.40883 -715.78 330.36)"><path fill="#fff" d="M514.96 217.83h.3v-.2c.05.08.11.14.17.18a.39.39 0 0 0 .42 0c.06-.04.1-.1.14-.18.06.08.12.14.18.18a.39.39 0 0 0 .42 0c.06-.04.1-.1.14-.17a.94.94 0 0 0 .05-.35v-.96h-.33v.86c0 .15-.02.25-.04.3-.03.05-.07.07-.14.07s-.13-.03-.17-.1c-.05-.07-.07-.2-.07-.4v-.73h-.33v.82c0 .17 0 .27-.02.32-.03.06-.08.1-.15.1a.21.21 0 0 1-.13-.05.27.27 0 0 1-.09-.15 1.24 1.24 0 0 1-.03-.31v-.73h-.32zM517.85 216.8l.33-.06a.64.64 0 0 0-.2-.34.51.51 0 0 0-.34-.11.51.51 0 0 0-.43.18.91.91 0 0 0-.17.6c0 .25.06.46.17.6.1.14.23.2.4.2a.5.5 0 0 0 .4-.2c.12-.15.18-.37.18-.66v-.04h-.82c0-.12.03-.22.08-.28.05-.07.12-.1.19-.1.1 0 .17.07.21.21m.02.41c0 .12-.03.2-.08.27a.21.21 0 0 1-.17.08.21.21 0 0 1-.17-.09.4.4 0 0 1-.07-.26zM518.8 216.33h-.33v1.5h.3v-.21c.06.1.1.17.15.2.04.03.09.05.14.05.07 0 .14-.02.21-.08l-.1-.34a.25.25 0 0 1-.15.06.17.17 0 0 1-.12-.05c-.04-.03-.06-.1-.08-.18a3.43 3.43 0 0 1-.02-.49zM519.41 216.23l.38-.06c0-.05.02-.1.05-.12.03-.02.07-.03.14-.03s.13.01.17.03c.03.02.06.05.07.09.02.04.03.11.03.21v.22a.58.58 0 0 0-.17-.18.36.36 0 0 0-.2-.06.42.42 0 0 0-.35.18.93.93 0 0 0-.16.58c0 .26.05.45.15.58.1.13.23.2.37.2.08 0 .15-.02.21-.06.06-.04.12-.1.17-.19v.21h.3v-1.35c0-.22-.01-.37-.05-.47a.44.44 0 0 0-.19-.22.66.66 0 0 0-.34-.08.83.83 0 0 0-.33.06.42.42 0 0 0-.25.4zm.3.88c0-.16.02-.28.07-.35.05-.07.12-.11.19-.11.08 0 .14.04.2.11.06.08.08.19.08.34 0 .16-.02.28-.08.35-.05.08-.12.12-.2.12-.07 0-.14-.04-.19-.12-.05-.07-.07-.18-.07-.34M521.65 216.8l.32-.06a.64.64 0 0 0-.2-.34.52.52 0 0 0-.34-.11.51.51 0 0 0-.42.18.91.91 0 0 0-.18.6c0 .25.06.46.18.6.1.14.23.2.39.2a.5.5 0 0 0 .42-.2c.11-.15.17-.37.17-.66v-.04h-.82c0-.12.03-.22.08-.28.05-.07.11-.1.19-.1.1 0 .17.07.2.21m.02.41c0 .12-.02.2-.07.27a.2.2 0 0 1-.17.08.21.21 0 0 1-.17-.09.4.4 0 0 1-.07-.26zM523.41 216.33h-.33v.77c0 .15 0 .25-.02.3a.2.2 0 0 1-.07.12.18.18 0 0 1-.11.05.23.23 0 0 1-.15-.06.28.28 0 0 1-.1-.15 1.52 1.52 0 0 1-.02-.35v-.68h-.33v1.5h.3v-.22a.6.6 0 0 0 .19.2c.07.04.14.06.22.06a.39.39 0 0 0 .38-.27c.03-.07.04-.19.04-.34zM524.85 217.39l-.32-.07c-.03.16-.1.24-.23.24a.23.23 0 0 1-.2-.1c-.04-.08-.07-.2-.07-.35 0-.18.03-.3.08-.38a.23.23 0 0 1 .2-.11.2.2 0 0 1 .15.06c.04.04.07.12.08.22l.33-.06c-.07-.37-.26-.55-.58-.55-.2 0-.35.08-.44.23-.1.16-.15.34-.15.56 0 .25.05.45.16.59.12.13.26.2.44.2.14 0 .26-.04.35-.11.1-.08.16-.2.2-.37M524.97 217.83h.35l.3-1.07.28 1.07h.34l-.43-1.45-.09-.28a.9.9 0 0 0-.1-.23.36.36 0 0 0-.15-.12.5.5 0 0 0-.2-.04c-.07 0-.13.01-.2.03l-.02.31a.6.6 0 0 1 .14-.02.2.2 0 0 1 .15.07.5.5 0 0 1 .1.22zM527.09 217l.34.04c.03-.26.16-.4.37-.4.1 0 .18.03.24.09.06.05.1.12.1.2 0 .05-.02.09-.04.12a.23.23 0 0 1-.1.08c-.04.02-.14.06-.3.1-.15.05-.26.1-.33.15a.55.55 0 0 0-.16.2.64.64 0 0 0 .02.59c.05.09.12.16.21.2.1.05.2.07.34.07.2 0 .36-.05.47-.16.11-.1.17-.26.18-.47l-.35-.02c-.01.12-.04.2-.1.24a.32.32 0 0 1-.2.07.34.34 0 0 1-.22-.06.17.17 0 0 1-.08-.15c0-.05.02-.1.07-.14a.95.95 0 0 1 .31-.13c.18-.05.3-.1.38-.16a.54.54 0 0 0 .18-.21c.04-.09.06-.2.06-.32a.65.65 0 0 0-.17-.45c-.11-.13-.29-.19-.52-.19-.42 0-.65.24-.7.72M529.51 216.8l.33-.06a.64.64 0 0 0-.2-.34.52.52 0 0 0-.34-.11.51.51 0 0 0-.42.18.91.91 0 0 0-.18.6c0 .25.06.46.18.6.1.14.23.2.39.2a.5.5 0 0 0 .41-.2c.12-.15.18-.37.18-.66v-.04h-.83c0-.12.03-.22.08-.28.06-.07.12-.1.2-.1.1 0 .17.07.2.21m.02.41c0 .12-.03.2-.08.27a.21.21 0 0 1-.16.08.21.21 0 0 1-.18-.09.42.42 0 0 1-.07-.26zM530.46 216.33h-.32v1.5h.3v-.21c.05.1.1.17.14.2.04.03.09.05.14.05.08 0 .15-.02.22-.08l-.1-.34a.25.25 0 0 1-.16.06.17.17 0 0 1-.12-.05c-.03-.03-.06-.1-.07-.18a3.64 3.64 0 0 1-.03-.49z"/></g><path fill="#fff" d="M32.94 25.6l-.71-2.13h.48l.33 1.09.1.36.1-.36.33-1.09h.47l-.7 2.13zM34.36 23.18h.47v-.52h-.47zm0 2.41h.47v-2.12h-.47z"/><g clip-path="url(#c)" transform="matrix(1.40883 0 0 -1.40883 -715.78 330.36)"><path fill="#fff" d="M534.23 217.39l-.32-.07c-.02.16-.1.24-.22.24a.23.23 0 0 1-.2-.1c-.05-.08-.07-.2-.07-.35 0-.18.02-.3.07-.38a.23.23 0 0 1 .2-.11.2.2 0 0 1 .15.06c.04.04.07.12.09.22l.32-.06c-.07-.37-.26-.55-.57-.55-.2 0-.36.08-.45.23-.1.16-.15.34-.15.56 0 .25.06.45.17.59.1.13.25.2.43.2.15 0 .26-.04.36-.11.09-.08.15-.2.2-.37M535.23 216.8l.32-.06a.64.64 0 0 0-.2-.34.52.52 0 0 0-.34-.11.51.51 0 0 0-.42.18.91.91 0 0 0-.18.6c0 .25.06.46.18.6.1.14.23.2.39.2a.5.5 0 0 0 .42-.2c.11-.15.17-.37.17-.66v-.04h-.82c0-.12.03-.22.08-.28.05-.07.11-.1.19-.1.1 0 .17.07.2.21m.02.41c0 .12-.02.2-.07.27-.05.05-.1.08-.17.08a.21.21 0 0 1-.17-.09.4.4 0 0 1-.08-.26zM535.75 216.76l.33.06c.03-.16.11-.24.26-.24.08 0 .14.01.18.04.04.03.06.07.06.12 0 .04-.01.06-.03.08-.02.02-.05.04-.1.05-.27.07-.45.14-.52.2-.09.08-.13.2-.13.34s.04.25.13.33c.09.09.22.13.39.13.16 0 .28-.03.37-.1a.51.51 0 0 0 .17-.3l-.3-.07c-.03.12-.11.18-.24.18-.08 0-.14 0-.17-.03a.1.1 0 0 1-.05-.1.1.1 0 0 1 .05-.07c.03-.03.12-.06.29-.1a.8.8 0 0 0 .37-.2c.06-.07.1-.17.1-.29a.48.48 0 0 0-.15-.36.58.58 0 0 0-.42-.14.63.63 0 0 0-.39.12c-.1.08-.17.2-.2.35M517 228.46c-.2.48-.51.83-.91 1.07-.33.19-.77.28-1.31.28h-.42v.01h-1.79v-.2c.81-.13.84-.13.84-1v-4.75H514.78a2.53 2.53 0 0 1 1.43.37c.2.14.4.33.55.55.16.23.3.52.4.87.1.36.16.75.16 1.16 0 .61-.1 1.16-.32 1.64m-1.22-3.84a1.02 1.02 0 0 0-.92-.53.52.52 0 0 0-.3.07.3.3 0 0 0-.12.16c-.01.04-.03.14-.03.48v4.79h.08c.38 0 .65-.05.83-.14.24-.14.44-.4.6-.77.18-.47.28-1.1.28-1.89 0-.98-.14-1.7-.42-2.17"/></g></svg>